<svg width="37" height="34" viewBox="0 0 37 34" fill="none" xmlns="http://www.w3.org/2000/svg">
<path d="M31.45 11.1C29.9083 11.1 28.5979 10.5604 27.5188 9.48125C26.4396 8.40208 25.9 7.09167 25.9 5.55C25.9 4.00833 26.4396 2.69792 27.5188 1.61875C28.5979 0.539583 29.9083 0 31.45 0C32.9917 0 34.3021 0.539583 35.3813 1.61875C36.4604 2.69792 37 4.00833 37 5.55C37 7.09167 36.4604 8.40208 35.3813 9.48125C34.3021 10.5604 32.9917 11.1 31.45 11.1ZM3.7 33.3C2.6825 33.3 1.81177 32.938 1.0878 32.2141C0.3626 31.4888 0 30.6175 0 29.6V7.4C0 6.3825 0.3626 5.51177 1.0878 4.7878C1.81177 4.0626 2.6825 3.7 3.7 3.7H22.385C22.2617 4.31667 22.2 4.93333 22.2 5.55C22.2 6.16667 22.2617 6.78333 22.385 7.4C22.6008 8.38667 22.9554 9.30365 23.4488 10.1509C23.9421 10.9995 24.5433 11.7475 25.2525 12.395L18.5 16.65L6.105 8.88C5.58083 8.54083 5.04927 8.52542 4.5103 8.83375C3.9701 9.14208 3.7 9.60458 3.7 10.2212C3.7 10.4987 3.76167 10.7534 3.885 10.9853C4.00833 11.2159 4.19333 11.4083 4.44 11.5625L17.5288 19.7487C17.8371 19.9337 18.1608 20.0262 18.5 20.0262C18.8392 20.0262 19.1629 19.9337 19.4712 19.7487L28.2587 14.245C28.7829 14.43 29.3071 14.5687 29.8313 14.6612C30.3554 14.7537 30.895 14.8 31.45 14.8C32.4367 14.8 33.4079 14.6458 34.3638 14.3375C35.3196 14.0292 36.1983 13.5667 37 12.95V29.6C37 30.6175 36.638 31.4888 35.9141 32.2141C35.1889 32.938 34.3175 33.3 33.3 33.3H3.7Z" fill="#504441"/>
</svg>
