<svg width="37" height="37" viewBox="0 0 37 37" fill="none" xmlns="http://www.w3.org/2000/svg">
<path d="M27.0385 0H9.96154C7.32044 0.00282521 4.78833 1.05325 2.92079 2.92079C1.05325 4.78833 0.00282521 7.32044 0 9.96154V27.0385C0.00282521 29.6796 1.05325 32.2117 2.92079 34.0792C4.78833 35.9468 7.32044 36.9972 9.96154 37H27.0385C29.6796 36.9972 32.2117 35.9468 34.0792 34.0792C35.9468 32.2117 36.9972 29.6796 37 27.0385V9.96154C36.9972 7.32044 35.9468 4.78833 34.0792 2.92079C32.2117 1.05325 29.6796 0.00282521 27.0385 0ZM18.5 27.0385C16.8113 27.0385 15.1604 26.5377 13.7563 25.5995C12.3521 24.6613 11.2577 23.3277 10.6115 21.7675C9.96523 20.2073 9.79615 18.4905 10.1256 16.8342C10.4551 15.1779 11.2683 13.6565 12.4624 12.4624C13.6565 11.2683 15.1779 10.4551 16.8342 10.1256C18.4905 9.79615 20.2073 9.96523 21.7675 10.6115C23.3277 11.2577 24.6613 12.3521 25.5995 13.7563C26.5377 15.1604 27.0385 16.8113 27.0385 18.5C27.0361 20.7638 26.1358 22.9342 24.535 24.535C22.9342 26.1358 20.7638 27.0361 18.5 27.0385ZM29.1731 9.96154C28.7509 9.96154 28.3382 9.83635 27.9872 9.60179C27.6361 9.36724 27.3625 9.03386 27.201 8.64381C27.0394 8.25376 26.9971 7.82455 27.0795 7.41048C27.1618 6.99641 27.3651 6.61605 27.6637 6.31752C27.9622 6.01899 28.3426 5.81569 28.7566 5.73332C29.1707 5.65096 29.5999 5.69323 29.99 5.8548C30.38 6.01636 30.7134 6.28996 30.9479 6.64099C31.1825 6.99203 31.3077 7.40474 31.3077 7.82692C31.3077 8.39306 31.0828 8.93601 30.6825 9.33632C30.2822 9.73664 29.7392 9.96154 29.1731 9.96154ZM24.1923 18.5C24.1923 19.6258 23.8585 20.7264 23.233 21.6625C22.6075 22.5986 21.7185 23.3282 20.6784 23.759C19.6382 24.1898 18.4937 24.3026 17.3895 24.0829C16.2853 23.8633 15.271 23.3212 14.4749 22.5251C13.6788 21.729 13.1367 20.7147 12.9171 19.6105C12.6974 18.5063 12.8102 17.3618 13.241 16.3216C13.6718 15.2815 14.4014 14.3925 15.3375 13.767C16.2736 13.1415 17.3742 12.8077 18.5 12.8077C20.0097 12.8077 21.4576 13.4074 22.5251 14.4749C23.5926 15.5424 24.1923 16.9903 24.1923 18.5Z" fill="#504441"/>
</svg>
