<svg width="37" height="37" viewBox="0 0 37 37" fill="none" xmlns="http://www.w3.org/2000/svg">
<path d="M34.1538 0H2.84615C2.09131 0 1.36738 0.299862 0.833619 0.833619C0.299862 1.36738 0 2.09131 0 2.84615V34.1538C0 34.9087 0.299862 35.6326 0.833619 36.1664C1.36738 36.7001 2.09131 37 2.84615 37H34.1538C34.9087 37 35.6326 36.7001 36.1664 36.1664C36.7001 35.6326 37 34.9087 37 34.1538V2.84615C37 2.09131 36.7001 1.36738 36.1664 0.833619C35.6326 0.299862 34.9087 0 34.1538 0ZM12.8077 27.0385C12.8077 27.4159 12.6578 27.7779 12.3909 28.0447C12.124 28.3116 11.762 28.4615 11.3846 28.4615C11.0072 28.4615 10.6452 28.3116 10.3783 28.0447C10.1115 27.7779 9.96154 27.4159 9.96154 27.0385V15.6538C9.96154 15.2764 10.1115 14.9145 10.3783 14.6476C10.6452 14.3807 11.0072 14.2308 11.3846 14.2308C11.762 14.2308 12.124 14.3807 12.3909 14.6476C12.6578 14.9145 12.8077 15.2764 12.8077 15.6538V27.0385ZM11.3846 12.8077C10.9624 12.8077 10.5497 12.6825 10.1987 12.4479C9.84765 12.2134 9.57405 11.88 9.41249 11.49C9.25092 11.0999 9.20865 10.6707 9.29102 10.2566C9.37338 9.84256 9.57668 9.46221 9.87521 9.16368C10.1737 8.86514 10.5541 8.66184 10.9682 8.57948C11.3822 8.49711 11.8114 8.53938 12.2015 8.70095C12.5915 8.86251 12.9249 9.13611 13.1595 9.48715C13.394 9.83818 13.5192 10.2509 13.5192 10.6731C13.5192 11.2392 13.2943 11.7822 12.894 12.1825C12.4937 12.5828 11.9508 12.8077 11.3846 12.8077ZM28.4615 27.0385C28.4615 27.4159 28.3116 27.7779 28.0447 28.0447C27.7779 28.3116 27.4159 28.4615 27.0385 28.4615C26.661 28.4615 26.2991 28.3116 26.0322 28.0447C25.7653 27.7779 25.6154 27.4159 25.6154 27.0385V20.6346C25.6154 19.6911 25.2406 18.7861 24.5734 18.1189C23.9062 17.4517 23.0012 17.0769 22.0577 17.0769C21.1141 17.0769 20.2092 17.4517 19.542 18.1189C18.8748 18.7861 18.5 19.6911 18.5 20.6346V27.0385C18.5 27.4159 18.3501 27.7779 18.0832 28.0447C17.8163 28.3116 17.4543 28.4615 17.0769 28.4615C16.6995 28.4615 16.3375 28.3116 16.0707 28.0447C15.8038 27.7779 15.6538 27.4159 15.6538 27.0385V15.6538C15.6556 15.3053 15.7853 14.9695 16.0182 14.7101C16.2511 14.4508 16.5711 14.286 16.9175 14.2469C17.2639 14.2079 17.6125 14.2973 17.8974 14.4983C18.1822 14.6993 18.3833 14.9978 18.4626 15.3372C19.4253 14.6841 20.5477 14.3057 21.7093 14.2424C22.8709 14.1791 24.0277 14.4334 25.0557 14.978C26.0836 15.5226 26.9438 16.3369 27.5439 17.3335C28.1439 18.3301 28.4612 19.4713 28.4615 20.6346V27.0385Z" fill="#504441"/>
</svg>
