<svg width="48" height="52" viewBox="0 0 48 52" fill="none" xmlns="http://www.w3.org/2000/svg">
<path d="M43.5596 4.5885H37.1611V2.0885C37.1611 1.69068 37.0056 1.30915 36.7287 1.02784C36.4517 0.746536 36.0762 0.588501 35.6846 0.588501C35.293 0.588501 34.9174 0.746536 34.6405 1.02784C34.3636 1.30915 34.208 1.69068 34.208 2.0885V4.5885H13.5361V2.0885C13.5361 1.69068 13.3806 1.30915 13.1037 1.02784C12.8267 0.746536 12.4512 0.588501 12.0596 0.588501C11.668 0.588501 11.2924 0.746536 11.0155 1.02784C10.7386 1.30915 10.583 1.69068 10.583 2.0885V4.5885H4.18457C3.27082 4.5885 2.39449 4.95725 1.74837 5.61363C1.10225 6.27 0.739258 7.16024 0.739258 8.0885V48.0885C0.739258 49.0168 1.10225 49.907 1.74837 50.5634C2.39449 51.2197 3.27082 51.5885 4.18457 51.5885H43.5596C44.4733 51.5885 45.3497 51.2197 45.9958 50.5634C46.6419 49.907 47.0049 49.0168 47.0049 48.0885V8.0885C47.0049 7.16024 46.6419 6.27 45.9958 5.61363C45.3497 4.95725 44.4733 4.5885 43.5596 4.5885ZM4.18457 7.5885H10.583V10.0885C10.583 10.4863 10.7386 10.8679 11.0155 11.1492C11.2924 11.4305 11.668 11.5885 12.0596 11.5885C12.4512 11.5885 12.8267 11.4305 13.1037 11.1492C13.3806 10.8679 13.5361 10.4863 13.5361 10.0885V7.5885H34.208V10.0885C34.208 10.4863 34.3636 10.8679 34.6405 11.1492C34.9174 11.4305 35.293 11.5885 35.6846 11.5885C36.0762 11.5885 36.4517 11.4305 36.7287 11.1492C37.0056 10.8679 37.1611 10.4863 37.1611 10.0885V7.5885H43.5596C43.6901 7.5885 43.8153 7.64118 43.9076 7.73495C43.9999 7.82872 44.0518 7.95589 44.0518 8.0885V16.5885H3.69238V8.0885C3.69238 7.95589 3.74424 7.82872 3.83654 7.73495C3.92884 7.64118 4.05403 7.5885 4.18457 7.5885ZM43.5596 48.5885H4.18457C4.05403 48.5885 3.92884 48.5358 3.83654 48.4421C3.74424 48.3483 3.69238 48.2211 3.69238 48.0885V19.5885H44.0518V48.0885C44.0518 48.2211 43.9999 48.3483 43.9076 48.4421C43.8153 48.5358 43.6901 48.5885 43.5596 48.5885ZM19.4424 26.0885V42.0885C19.4424 42.4863 19.2868 42.8679 19.0099 43.1492C18.733 43.4305 18.3574 43.5885 17.9658 43.5885C17.5742 43.5885 17.1986 43.4305 16.9217 43.1492C16.6448 42.8679 16.4893 42.4863 16.4893 42.0885V28.516L14.6879 29.431C14.5143 29.519 14.3254 29.5714 14.1319 29.5852C13.9384 29.599 13.7442 29.574 13.5602 29.5116C13.3763 29.4491 13.2062 29.3505 13.0598 29.2213C12.9134 29.092 12.7934 28.9348 12.7068 28.7585C12.6202 28.5822 12.5686 28.3903 12.555 28.1937C12.5414 27.9972 12.566 27.7999 12.6275 27.613C12.689 27.4261 12.7861 27.2533 12.9133 27.1046C13.0405 26.9558 13.1952 26.834 13.3688 26.746L17.3063 24.746C17.5314 24.6318 17.7816 24.578 18.033 24.5896C18.2844 24.6012 18.5287 24.6779 18.7427 24.8124C18.9567 24.9469 19.1333 25.1348 19.2558 25.3581C19.3782 25.5814 19.4425 25.8329 19.4424 26.0885ZM34.1022 33.401L28.7939 40.5885H33.7158C34.1074 40.5885 34.483 40.7465 34.7599 41.0278C35.0368 41.3091 35.1924 41.6907 35.1924 42.0885C35.1924 42.4863 35.0368 42.8679 34.7599 43.1492C34.483 43.4305 34.1074 43.5885 33.7158 43.5885H25.8408C25.5666 43.5885 25.2978 43.5109 25.0645 43.3645C24.8313 43.218 24.6428 43.0085 24.5201 42.7593C24.3975 42.5102 24.3456 42.2312 24.3702 41.9538C24.3948 41.6763 24.495 41.4114 24.6596 41.1885L31.7471 31.5885C31.9512 31.3161 32.098 31.004 32.1785 30.6715C32.259 30.3391 32.2714 29.9934 32.215 29.6559C32.1586 29.3184 32.0345 28.9963 31.8505 28.7094C31.6665 28.4226 31.4265 28.1773 31.1453 27.9886C30.8641 27.7999 30.5478 27.6718 30.2159 27.6124C29.884 27.553 29.5437 27.5634 29.2159 27.6431C28.8882 27.7228 28.5801 27.87 28.3106 28.0756C28.0412 28.2813 27.8162 28.5409 27.6496 28.8385C27.5616 29.025 27.4365 29.191 27.2822 29.326C27.128 29.4611 26.9479 29.5623 26.7534 29.6232C26.5588 29.6842 26.3539 29.7036 26.1516 29.6802C25.9493 29.6569 25.7539 29.5913 25.5777 29.4875C25.4016 29.3838 25.2484 29.2441 25.128 29.0774C25.0075 28.9106 24.9222 28.7204 24.8776 28.5186C24.833 28.3167 24.8299 28.1077 24.8686 27.9046C24.9073 27.7016 24.987 27.5088 25.1025 27.3385C25.4736 26.6913 25.9709 26.128 26.5639 25.683C27.1569 25.2379 27.8331 24.9207 28.5511 24.7505C29.2691 24.5804 30.0137 24.5611 30.7394 24.6937C31.465 24.8263 32.1563 25.108 32.7709 25.5217C33.3855 25.9353 33.9105 26.4721 34.3137 27.0992C34.7168 27.7262 34.9897 28.4303 35.1155 29.1683C35.2413 29.9063 35.2174 30.6626 35.0453 31.3909C34.8731 32.1191 34.5564 32.804 34.1145 33.4035L34.1022 33.401Z" fill="white"/>
</svg>
