<svg width="24" height="20" viewBox="0 0 24 20" fill="none" xmlns="http://www.w3.org/2000/svg">
<path d="M22.0882 18.4083C22.2662 18.4083 22.4346 18.335 22.5467 18.2085C22.6588 18.0821 22.7025 17.9163 22.6658 17.7571L22.294 16.1488C22.5057 15.9616 22.6388 15.7002 22.6388 15.4095C22.6388 15.1035 22.4897 14.8321 22.2583 14.6436V9.05865L20.7681 9.9017V14.6436C20.5367 14.8321 20.3876 15.1035 20.3876 15.4095C20.3876 15.7002 20.5207 15.9616 20.7324 16.1488L20.3606 17.7571C20.3238 17.9163 20.3676 18.0821 20.4797 18.2085C20.5918 18.335 20.7602 18.4083 20.9382 18.4083H22.0882ZM22.5933 5.79962L12.8983 0.313384C12.6144 0.153502 12.2943 0.0732422 11.9742 0.0732422C11.6542 0.0732422 11.3339 0.153435 11.0516 0.313384L1.35654 5.79962C1.09766 5.94605 0.94043 6.20469 0.94043 6.48304C0.94043 6.76145 1.09766 7.02017 1.35654 7.16683L11.0516 12.6531C11.3338 12.8132 11.6541 12.8933 11.9742 12.8933C12.2943 12.8933 12.6144 12.8131 12.8983 12.6531L22.5933 7.16683C22.8522 7.02023 23.0094 6.76145 23.0094 6.48304C23.0094 6.20469 22.8522 5.94597 22.5933 5.79962ZM11.9742 14.2555C11.3703 14.2555 10.7808 14.1022 10.2671 13.8115L4.6119 10.611V16.1219C4.6119 17.7529 7.90966 19.0732 11.9742 19.0732C16.0402 19.0732 19.3377 17.7529 19.3377 16.1219V10.611L13.6827 13.8115C13.1689 14.1022 12.5781 14.2555 11.9742 14.2555Z" fill="white"/>
</svg>
