<svg width="1072" height="757" viewBox="0 0 1072 757" fill="none" xmlns="http://www.w3.org/2000/svg">
<path d="M541.557 361.608V352.881H544.506C545.19 352.881 545.75 353.005 546.185 353.252C546.622 353.496 546.946 353.827 547.156 354.245C547.366 354.662 547.472 355.128 547.472 355.643C547.472 356.157 547.366 356.624 547.156 357.045C546.949 357.465 546.628 357.8 546.193 358.05C545.759 358.297 545.202 358.421 544.523 358.421H542.409V357.483H544.489C544.957 357.483 545.334 357.402 545.618 357.241C545.902 357.079 546.108 356.86 546.236 356.584C546.366 356.306 546.432 355.992 546.432 355.643C546.432 355.293 546.366 354.981 546.236 354.705C546.108 354.429 545.901 354.214 545.614 354.057C545.327 353.898 544.946 353.819 544.472 353.819H542.614V361.608H541.557ZM551.626 361.745C551.036 361.745 550.517 361.604 550.071 361.323C549.628 361.042 549.281 360.648 549.031 360.143C548.784 359.637 548.661 359.046 548.661 358.37C548.661 357.688 548.784 357.093 549.031 356.584C549.281 356.076 549.628 355.681 550.071 355.4C550.517 355.118 551.036 354.978 551.626 354.978C552.217 354.978 552.734 355.118 553.178 355.4C553.624 355.681 553.97 356.076 554.217 356.584C554.467 357.093 554.592 357.688 554.592 358.37C554.592 359.046 554.467 359.637 554.217 360.143C553.97 360.648 553.624 361.042 553.178 361.323C552.734 361.604 552.217 361.745 551.626 361.745ZM551.626 360.841C552.075 360.841 552.445 360.726 552.734 360.496C553.024 360.266 553.239 359.964 553.378 359.589C553.517 359.214 553.587 358.807 553.587 358.37C553.587 357.932 553.517 357.525 553.378 357.147C553.239 356.769 553.024 356.464 552.734 356.231C552.445 355.998 552.075 355.881 551.626 355.881C551.178 355.881 550.808 355.998 550.518 356.231C550.229 356.464 550.014 356.769 549.875 357.147C549.736 357.525 549.666 357.932 549.666 358.37C549.666 358.807 549.736 359.214 549.875 359.589C550.014 359.964 550.229 360.266 550.518 360.496C550.808 360.726 551.178 360.841 551.626 360.841ZM556.127 361.608V355.063H557.099V356.086H557.184C557.321 355.736 557.541 355.465 557.845 355.272C558.149 355.076 558.514 354.978 558.94 354.978C559.372 354.978 559.731 355.076 560.018 355.272C560.308 355.465 560.534 355.736 560.696 356.086H560.764C560.931 355.748 561.183 355.479 561.518 355.28C561.853 355.079 562.255 354.978 562.724 354.978C563.309 354.978 563.788 355.161 564.16 355.527C564.532 355.891 564.718 356.458 564.718 357.228V361.608H563.713V357.228C563.713 356.745 563.581 356.4 563.316 356.192C563.052 355.985 562.741 355.881 562.383 355.881C561.923 355.881 561.566 356.02 561.314 356.299C561.061 356.574 560.934 356.924 560.934 357.347V361.608H559.912V357.126C559.912 356.753 559.791 356.454 559.549 356.226C559.308 355.996 558.997 355.881 558.616 355.881C558.355 355.881 558.11 355.951 557.883 356.09C557.659 356.229 557.477 356.422 557.338 356.67C557.201 356.914 557.133 357.197 557.133 357.518V361.608H556.127ZM569.216 361.745C568.625 361.745 568.107 361.604 567.661 361.323C567.218 361.042 566.871 360.648 566.621 360.143C566.374 359.637 566.25 359.046 566.25 358.37C566.25 357.688 566.374 357.093 566.621 356.584C566.871 356.076 567.218 355.681 567.661 355.4C568.107 355.118 568.625 354.978 569.216 354.978C569.807 354.978 570.324 355.118 570.767 355.4C571.213 355.681 571.56 356.076 571.807 356.584C572.057 357.093 572.182 357.688 572.182 358.37C572.182 359.046 572.057 359.637 571.807 360.143C571.56 360.648 571.213 361.042 570.767 361.323C570.324 361.604 569.807 361.745 569.216 361.745ZM569.216 360.841C569.665 360.841 570.034 360.726 570.324 360.496C570.614 360.266 570.828 359.964 570.968 359.589C571.107 359.214 571.176 358.807 571.176 358.37C571.176 357.932 571.107 357.525 570.968 357.147C570.828 356.769 570.614 356.464 570.324 356.231C570.034 355.998 569.665 355.881 569.216 355.881C568.767 355.881 568.398 355.998 568.108 356.231C567.819 356.464 567.604 356.769 567.465 357.147C567.326 357.525 567.256 357.932 567.256 358.37C567.256 358.807 567.326 359.214 567.465 359.589C567.604 359.964 567.819 360.266 568.108 360.496C568.398 360.726 568.767 360.841 569.216 360.841ZM576.189 361.745C575.643 361.745 575.162 361.607 574.744 361.331C574.327 361.053 574 360.661 573.764 360.155C573.528 359.647 573.411 359.046 573.411 358.353C573.411 357.665 573.528 357.069 573.764 356.563C574 356.057 574.328 355.667 574.749 355.391C575.169 355.116 575.655 354.978 576.206 354.978C576.632 354.978 576.969 355.049 577.216 355.191C577.466 355.33 577.656 355.489 577.787 355.668C577.92 355.844 578.024 355.989 578.098 356.103H578.183V352.881H579.189V361.608H578.217V360.603H578.098C578.024 360.722 577.919 360.873 577.783 361.054C577.646 361.233 577.452 361.394 577.199 361.536C576.946 361.675 576.609 361.745 576.189 361.745ZM576.325 360.841C576.729 360.841 577.07 360.736 577.348 360.526C577.626 360.313 577.838 360.019 577.983 359.644C578.128 359.266 578.2 358.83 578.2 358.336C578.2 357.847 578.129 357.42 577.987 357.053C577.845 356.684 577.635 356.397 577.357 356.192C577.078 355.985 576.734 355.881 576.325 355.881C575.899 355.881 575.544 355.991 575.26 356.209C574.979 356.425 574.767 356.719 574.625 357.091C574.486 357.461 574.416 357.876 574.416 358.336C574.416 358.802 574.487 359.225 574.629 359.606C574.774 359.983 574.987 360.285 575.268 360.509C575.553 360.731 575.905 360.841 576.325 360.841ZM583.83 361.745C583.239 361.745 582.72 361.604 582.274 361.323C581.831 361.042 581.484 360.648 581.234 360.143C580.987 359.637 580.864 359.046 580.864 358.37C580.864 357.688 580.987 357.093 581.234 356.584C581.484 356.076 581.831 355.681 582.274 355.4C582.72 355.118 583.239 354.978 583.83 354.978C584.42 354.978 584.938 355.118 585.381 355.4C585.827 355.681 586.173 356.076 586.42 356.584C586.67 357.093 586.795 357.688 586.795 358.37C586.795 359.046 586.67 359.637 586.42 360.143C586.173 360.648 585.827 361.042 585.381 361.323C584.938 361.604 584.42 361.745 583.83 361.745ZM583.83 360.841C584.278 360.841 584.648 360.726 584.938 360.496C585.227 360.266 585.442 359.964 585.581 359.589C585.72 359.214 585.79 358.807 585.79 358.37C585.79 357.932 585.72 357.525 585.581 357.147C585.442 356.769 585.227 356.464 584.938 356.231C584.648 355.998 584.278 355.881 583.83 355.881C583.381 355.881 583.011 355.998 582.722 356.231C582.432 356.464 582.217 356.769 582.078 357.147C581.939 357.525 581.869 357.932 581.869 358.37C581.869 358.807 581.939 359.214 582.078 359.589C582.217 359.964 582.432 360.266 582.722 360.496C583.011 360.726 583.381 360.841 583.83 360.841ZM588.331 361.608V355.063H589.302V356.052H589.37C589.49 355.728 589.706 355.465 590.018 355.263C590.331 355.062 590.683 354.961 591.075 354.961C591.149 354.961 591.241 354.962 591.352 354.965C591.463 354.968 591.547 354.972 591.603 354.978V356.001C591.569 355.992 591.491 355.979 591.369 355.962C591.25 355.942 591.123 355.932 590.99 355.932C590.672 355.932 590.387 355.999 590.137 356.133C589.89 356.263 589.694 356.445 589.549 356.678C589.407 356.908 589.336 357.171 589.336 357.466V361.608H588.331ZM595.255 361.745C594.664 361.745 594.146 361.604 593.7 361.323C593.257 361.042 592.91 360.648 592.66 360.143C592.413 359.637 592.289 359.046 592.289 358.37C592.289 357.688 592.413 357.093 592.66 356.584C592.91 356.076 593.257 355.681 593.7 355.4C594.146 355.118 594.664 354.978 595.255 354.978C595.846 354.978 596.363 355.118 596.806 355.4C597.252 355.681 597.599 356.076 597.846 356.584C598.096 357.093 598.221 357.688 598.221 358.37C598.221 359.046 598.096 359.637 597.846 360.143C597.599 360.648 597.252 361.042 596.806 361.323C596.363 361.604 595.846 361.745 595.255 361.745ZM595.255 360.841C595.704 360.841 596.074 360.726 596.363 360.496C596.653 360.266 596.868 359.964 597.007 359.589C597.146 359.214 597.216 358.807 597.216 358.37C597.216 357.932 597.146 357.525 597.007 357.147C596.868 356.769 596.653 356.464 596.363 356.231C596.074 355.998 595.704 355.881 595.255 355.881C594.806 355.881 594.437 355.998 594.147 356.231C593.858 356.464 593.643 356.769 593.504 357.147C593.365 357.525 593.295 357.932 593.295 358.37C593.295 358.807 593.365 359.214 593.504 359.589C593.643 359.964 593.858 360.266 594.147 360.496C594.437 360.726 594.806 360.841 595.255 360.841ZM544.267 370.063V370.915H540.875V370.063H544.267ZM541.864 368.495H542.869V374.733C542.869 375.018 542.911 375.231 542.993 375.373C543.078 375.512 543.186 375.606 543.317 375.654C543.45 375.699 543.591 375.722 543.739 375.722C543.849 375.722 543.94 375.716 544.011 375.705C544.082 375.691 544.139 375.679 544.182 375.671L544.386 376.574C544.318 376.6 544.223 376.626 544.101 376.651C543.979 376.679 543.824 376.694 543.636 376.694C543.352 376.694 543.074 376.633 542.801 376.51C542.531 376.388 542.307 376.202 542.128 375.952C541.952 375.702 541.864 375.387 541.864 375.006V368.495ZM548.454 376.745C547.823 376.745 547.279 376.606 546.822 376.327C546.367 376.046 546.016 375.654 545.769 375.151C545.525 374.645 545.403 374.057 545.403 373.387C545.403 372.716 545.525 372.126 545.769 371.614C546.016 371.1 546.36 370.699 546.8 370.412C547.244 370.123 547.761 369.978 548.352 369.978C548.692 369.978 549.029 370.035 549.362 370.148C549.694 370.262 549.996 370.447 550.269 370.702C550.542 370.955 550.759 371.29 550.921 371.708C551.083 372.126 551.164 372.64 551.164 373.251V373.677H546.119V372.807H550.141C550.141 372.438 550.067 372.108 549.92 371.819C549.775 371.529 549.567 371.3 549.298 371.133C549.031 370.965 548.715 370.881 548.352 370.881C547.951 370.881 547.604 370.981 547.312 371.179C547.022 371.376 546.799 371.631 546.643 371.947C546.487 372.262 546.408 372.6 546.408 372.961V373.54C546.408 374.035 546.494 374.454 546.664 374.797C546.837 375.138 547.077 375.398 547.384 375.577C547.691 375.753 548.048 375.841 548.454 375.841C548.718 375.841 548.957 375.804 549.17 375.731C549.386 375.654 549.572 375.54 549.728 375.39C549.884 375.236 550.005 375.046 550.09 374.819L551.062 375.091C550.96 375.421 550.788 375.711 550.546 375.961C550.305 376.208 550.006 376.401 549.651 376.54C549.296 376.677 548.897 376.745 548.454 376.745ZM555.353 376.745C554.739 376.745 554.211 376.6 553.768 376.31C553.325 376.02 552.984 375.621 552.745 375.113C552.506 374.604 552.387 374.023 552.387 373.37C552.387 372.705 552.509 372.118 552.754 371.61C553.001 371.099 553.344 370.699 553.785 370.412C554.228 370.123 554.745 369.978 555.336 369.978C555.796 369.978 556.211 370.063 556.58 370.233C556.95 370.404 557.252 370.643 557.488 370.949C557.724 371.256 557.87 371.614 557.927 372.023H556.921C556.844 371.725 556.674 371.461 556.41 371.231C556.148 370.998 555.796 370.881 555.353 370.881C554.961 370.881 554.617 370.983 554.322 371.188C554.029 371.39 553.8 371.675 553.636 372.045C553.474 372.411 553.393 372.841 553.393 373.336C553.393 373.841 553.472 374.282 553.631 374.657C553.793 375.032 554.021 375.323 554.313 375.53C554.609 375.738 554.955 375.841 555.353 375.841C555.614 375.841 555.852 375.796 556.065 375.705C556.278 375.614 556.458 375.483 556.606 375.313C556.754 375.143 556.859 374.938 556.921 374.699H557.927C557.87 375.086 557.729 375.434 557.505 375.743C557.283 376.05 556.989 376.295 556.623 376.476C556.259 376.655 555.836 376.745 555.353 376.745ZM560.403 372.671V376.608H559.397V367.881H560.403V371.086H560.488C560.641 370.748 560.871 370.479 561.178 370.28C561.488 370.079 561.9 369.978 562.414 369.978C562.86 369.978 563.251 370.067 563.586 370.246C563.921 370.422 564.181 370.694 564.366 371.06C564.553 371.424 564.647 371.887 564.647 372.449V376.608H563.641V372.518C563.641 371.998 563.506 371.596 563.237 371.312C562.969 371.025 562.599 370.881 562.124 370.881C561.795 370.881 561.499 370.951 561.238 371.09C560.979 371.229 560.775 371.432 560.624 371.699C560.477 371.966 560.403 372.29 560.403 372.671ZM567.493 372.671V376.608H566.487V370.063H567.458V371.086H567.544C567.697 370.753 567.93 370.486 568.243 370.285C568.555 370.08 568.958 369.978 569.453 369.978C569.896 369.978 570.284 370.069 570.616 370.251C570.949 370.429 571.207 370.702 571.392 371.069C571.576 371.432 571.669 371.893 571.669 372.449V376.608H570.663V372.518C570.663 372.003 570.529 371.603 570.262 371.316C569.995 371.026 569.629 370.881 569.163 370.881C568.842 370.881 568.555 370.951 568.302 371.09C568.052 371.229 567.855 371.432 567.71 371.699C567.565 371.966 567.493 372.29 567.493 372.671ZM573.506 376.608V370.063H574.512V376.608H573.506ZM574.018 368.972C573.822 368.972 573.653 368.905 573.511 368.772C573.371 368.638 573.302 368.478 573.302 368.29C573.302 368.103 573.371 367.942 573.511 367.809C573.653 367.675 573.822 367.608 574.018 367.608C574.214 367.608 574.381 367.675 574.521 367.809C574.663 367.942 574.734 368.103 574.734 368.29C574.734 368.478 574.663 368.638 574.521 368.772C574.381 368.905 574.214 368.972 574.018 368.972ZM580.82 379.063V375.603H580.735C580.661 375.722 580.556 375.873 580.419 376.054C580.283 376.233 580.088 376.394 579.836 376.536C579.583 376.675 579.246 376.745 578.826 376.745C578.28 376.745 577.799 376.607 577.381 376.331C576.963 376.053 576.637 375.661 576.401 375.155C576.165 374.647 576.047 374.046 576.047 373.353C576.047 372.665 576.165 372.069 576.401 371.563C576.637 371.057 576.965 370.667 577.385 370.391C577.806 370.116 578.292 369.978 578.843 369.978C579.269 369.978 579.605 370.049 579.853 370.191C580.103 370.33 580.293 370.489 580.424 370.668C580.557 370.844 580.661 370.989 580.735 371.103H580.854V370.063H581.826V379.063H580.82ZM578.962 375.841C579.365 375.841 579.706 375.736 579.985 375.526C580.263 375.313 580.475 375.019 580.62 374.644C580.765 374.266 580.837 373.83 580.837 373.336C580.837 372.847 580.766 372.42 580.624 372.053C580.482 371.684 580.272 371.397 579.993 371.192C579.715 370.985 579.371 370.881 578.962 370.881C578.536 370.881 578.181 370.991 577.897 371.209C577.615 371.425 577.404 371.719 577.262 372.091C577.123 372.461 577.053 372.876 577.053 373.336C577.053 373.802 577.124 374.225 577.266 374.606C577.411 374.983 577.624 375.285 577.905 375.509C578.189 375.731 578.542 375.841 578.962 375.841ZM587.792 373.932V370.063H588.797V376.608H587.792V375.501H587.723C587.57 375.833 587.331 376.116 587.007 376.349C586.684 376.579 586.275 376.694 585.78 376.694C585.371 376.694 585.007 376.604 584.689 376.425C584.371 376.243 584.121 375.971 583.939 375.607C583.757 375.241 583.667 374.779 583.667 374.222V370.063H584.672V374.154C584.672 374.631 584.806 375.012 585.073 375.296C585.343 375.58 585.686 375.722 586.104 375.722C586.354 375.722 586.608 375.658 586.867 375.53C587.128 375.402 587.347 375.206 587.523 374.942C587.702 374.678 587.792 374.341 587.792 373.932ZM593.384 376.745C592.753 376.745 592.209 376.606 591.751 376.327C591.297 376.046 590.946 375.654 590.699 375.151C590.455 374.645 590.332 374.057 590.332 373.387C590.332 372.716 590.455 372.126 590.699 371.614C590.946 371.1 591.29 370.699 591.73 370.412C592.173 370.123 592.69 369.978 593.281 369.978C593.622 369.978 593.959 370.035 594.291 370.148C594.624 370.262 594.926 370.447 595.199 370.702C595.472 370.955 595.689 371.29 595.851 371.708C596.013 372.126 596.094 372.64 596.094 373.251V373.677H591.048V372.807H595.071C595.071 372.438 594.997 372.108 594.849 371.819C594.705 371.529 594.497 371.3 594.227 371.133C593.96 370.965 593.645 370.881 593.281 370.881C592.881 370.881 592.534 370.981 592.241 371.179C591.952 371.376 591.729 371.631 591.572 371.947C591.416 372.262 591.338 372.6 591.338 372.961V373.54C591.338 374.035 591.423 374.454 591.594 374.797C591.767 375.138 592.007 375.398 592.314 375.577C592.621 375.753 592.977 375.841 593.384 375.841C593.648 375.841 593.886 375.804 594.099 375.731C594.315 375.654 594.501 375.54 594.658 375.39C594.814 375.236 594.935 375.046 595.02 374.819L595.991 375.091C595.889 375.421 595.717 375.711 595.476 375.961C595.234 376.208 594.936 376.401 594.581 376.54C594.226 376.677 593.827 376.745 593.384 376.745Z" fill="black"/>
<path d="M144.288 555.444C144.288 555.444 31.7084 449.147 93.555 308.022C110.741 268.795 138.527 235.176 173.103 209.92C250.519 153.381 446.431 41.5377 741.125 84.6697C772.78 89.1909 803.067 100.57 829.87 118.013C873.094 146.432 918.976 198.574 899.442 287.917C892.555 319.488 894.112 352.424 905.43 382.688C916.688 412.641 938.006 449.399 977.708 489.116C977.708 489.116 1062.31 570.863 980.008 641.612C962.447 656.583 941.673 667.304 919.299 672.942C816.696 699.193 401.794 786.427 144.288 555.444Z" fill="white"/>
<path d="M384.547 598.602H929.419V610.756C929.425 612.594 929.067 614.415 928.367 616.114C927.666 617.813 926.638 619.358 925.339 620.659C924.04 621.961 922.497 622.993 920.799 623.697C919.1 624.402 917.279 624.765 915.439 624.765H384.547V598.602Z" fill="#909091"/>
<path d="M512.431 158.283H830.121C846.775 158.283 862.748 164.894 874.524 176.66C886.301 188.427 892.917 204.386 892.917 221.027V608.903H449.625V221.037C449.625 204.396 456.241 188.437 468.018 176.67C479.794 164.903 495.766 158.293 512.421 158.293L512.431 158.283Z" fill="#CCCCCC"/>
<path d="M530.261 158.283H837.433C855.482 158.283 872.792 165.447 885.555 178.199C898.318 190.951 905.488 208.247 905.488 226.281V608.903H462.236V226.232C462.249 208.211 469.421 190.933 482.176 178.192C494.93 165.452 512.225 158.291 530.261 158.283Z" fill="#E6E6E6"/>
<path d="M832.661 452.523L800.494 593.844H722.746L731.497 434.996H818.671C818.936 434.996 819.203 434.996 819.475 434.996C821.562 435.111 823.598 435.681 825.442 436.666C827.285 437.651 828.891 439.026 830.147 440.695C831.403 442.365 832.279 444.288 832.713 446.331C833.147 448.374 833.13 450.488 832.661 452.523Z" fill="#3F4347"/>
<path d="M832.661 452.523L800.494 593.844H772.107L806.933 446.129C807.63 443.087 809.286 440.349 811.656 438.317C813.857 436.441 816.592 435.304 819.475 435.065C821.554 435.183 823.583 435.751 825.421 436.732C827.259 437.712 828.86 439.081 830.115 440.742C831.37 442.403 832.248 444.318 832.687 446.352C833.127 448.387 833.118 450.492 832.661 452.523Z" fill="#2E3135"/>
<path d="M722.746 593.844H759.576C759.576 593.844 767.94 542.292 756.986 518.618L722.746 593.844Z" fill="#2E3135"/>
<path d="M632.992 234.282H662.619" stroke="#CCCCCC" stroke-width="4" stroke-miterlimit="10"/>
<path d="M632.804 254.308H662.43" stroke="#CCCCCC" stroke-width="4" stroke-miterlimit="10"/>
<path d="M633.429 291.871H663.056" stroke="#CCCCCC" stroke-width="4" stroke-miterlimit="10"/>
<path d="M538.962 337.117C538.962 337.117 526.312 359.076 517.799 402.013C517.799 402.013 509.147 449.48 506.974 492.138C506.974 492.138 501.437 571.24 501.179 581.679V594.369H574.354L581.299 589.888L584.911 545.117L585.665 449.281C585.665 449.281 584.95 395.202 597.938 352.364L574.354 348.845L555.502 343.492L538.962 337.117Z" fill="#E6E6E6"/>
<path d="M517.6 277.783C517.6 277.783 476.514 319.421 500.167 350.55C500.167 350.55 524.208 333.013 543.824 328.343C543.496 326.652 543.257 324.944 543.109 323.228V304.997C543.109 304.997 526.371 302.013 517.6 277.783Z" fill="#0CADB7"/>
<path opacity="0.7" d="M79.7171 570.714C79.7171 570.714 -49.0626 444.466 22.0983 277.274C41.8729 230.803 73.7811 191.001 113.453 161.127C202.279 94.2507 426.999 -37.9558 764.589 13.7721C800.852 19.1959 835.533 32.7478 866.21 53.4815C915.679 87.2614 968.145 149.172 945.577 255.056C937.62 292.471 939.336 331.523 952.242 367.426C965.08 402.96 989.431 446.583 1034.84 493.75C1034.84 493.75 1131.61 590.838 1037.16 674.551C1017.01 692.265 993.18 704.934 967.531 711.574C849.908 742.49 374.305 845.081 79.7171 570.714Z" fill="white"/>
<path d="M503.968 245.286L518.235 241.172C518.399 241.126 518.571 241.117 518.74 241.143C518.908 241.17 519.068 241.233 519.21 241.327C519.352 241.42 519.473 241.544 519.563 241.688C519.653 241.833 519.711 241.995 519.733 242.163C519.779 242.451 519.719 242.745 519.564 242.991C519.409 243.237 519.169 243.419 518.89 243.502L504.354 247.675L503.968 245.286Z" fill="white"/>
<path d="M517.471 269.238C525.033 269.238 531.163 263.028 531.163 255.368C531.163 247.709 525.033 241.499 517.471 241.499C509.909 241.499 503.779 247.709 503.779 255.368C503.779 263.028 509.909 269.238 517.471 269.238Z" fill="#F29681"/>
<path d="M598.265 256.3V321.731C598.265 328.91 595.461 335.805 590.449 340.949C585.437 346.092 578.614 349.078 571.432 349.271C564.25 349.463 557.276 346.847 551.995 341.979C546.715 337.112 543.544 330.377 543.159 323.208C543.159 322.722 543.159 322.217 543.159 321.731V256.3H598.265Z" fill="#F9B499"/>
<path d="M586.558 289.997C574.83 324.249 547.118 323.545 543.159 323.258C543.159 322.772 543.159 322.266 543.159 321.781V298.89L586.558 289.997Z" fill="#F29681"/>
<g opacity="0.2">
<path d="M509.355 344.552C509.321 344.553 509.287 344.544 509.257 344.526C509.227 344.509 509.203 344.484 509.186 344.453C506.993 340.26 505.67 335.667 505.297 330.951C504.987 327.01 505.258 323.045 506.101 319.183C506.917 315.18 508.304 311.314 510.218 307.703C510.23 307.682 510.246 307.664 510.265 307.649C510.283 307.634 510.305 307.623 510.328 307.617C510.351 307.611 510.375 307.609 510.399 307.612C510.423 307.614 510.445 307.622 510.466 307.634C510.487 307.645 510.506 307.661 510.52 307.68C510.535 307.699 510.546 307.72 510.552 307.743C510.559 307.766 510.561 307.79 510.558 307.814C510.555 307.838 510.548 307.861 510.536 307.881C508.65 311.469 507.278 315.304 506.458 319.272C504.538 327.712 505.622 336.557 509.524 344.285C509.545 344.328 509.549 344.378 509.534 344.425C509.519 344.471 509.487 344.509 509.444 344.533C509.417 344.548 509.386 344.555 509.355 344.552Z" fill="black"/>
</g>
<path d="M486.723 353.376C486.685 353.378 486.646 353.367 486.614 353.346C486.582 353.325 486.557 353.293 486.545 353.257C486.545 353.148 482.705 342.401 484.56 327.481C485.673 318.666 488.497 310.153 492.875 302.419C498.411 292.505 506.527 283.494 516.995 275.503C517.032 275.47 517.079 275.451 517.129 275.451C517.179 275.451 517.226 275.47 517.263 275.503C517.296 275.538 517.314 275.584 517.314 275.632C517.314 275.68 517.296 275.726 517.263 275.761C493.659 293.774 486.674 313.83 484.967 327.491C483.122 342.282 486.902 352.939 486.951 353.049C486.968 353.095 486.965 353.145 486.945 353.189C486.925 353.234 486.888 353.269 486.842 353.286L486.723 353.376Z" fill="#0CADB7"/>
<path d="M543.873 328.344C543.873 328.344 505.585 336.681 470.541 378.904C470.541 378.904 440.041 414.345 423.858 472.311L461.948 581.64H501.16C501.16 581.64 505.644 503.034 508.631 473.054C508.631 473.084 515.983 373.838 543.873 328.344Z" fill="white"/>
<g opacity="0.2">
<path d="M426.825 480.351H426.765C426.742 480.344 426.721 480.333 426.702 480.318C426.683 480.302 426.668 480.284 426.657 480.262C426.646 480.241 426.639 480.218 426.637 480.194C426.635 480.17 426.638 480.146 426.646 480.123C431.783 464.127 437.815 448.432 444.714 433.112C450.606 419.763 457.457 406.858 465.213 394.498C473.944 380.886 482.804 370.536 491.565 363.765C491.583 363.748 491.604 363.734 491.626 363.724C491.649 363.714 491.674 363.709 491.699 363.709C491.724 363.709 491.749 363.714 491.772 363.724C491.795 363.734 491.815 363.748 491.833 363.765C491.85 363.782 491.864 363.802 491.874 363.824C491.883 363.846 491.888 363.87 491.888 363.894C491.888 363.918 491.883 363.942 491.874 363.964C491.864 363.986 491.85 364.006 491.833 364.023C472.059 379.36 455.499 410.122 445.081 433.241C438.183 448.546 432.154 464.228 427.023 480.212C427.012 480.255 426.985 480.292 426.949 480.318C426.913 480.343 426.869 480.355 426.825 480.351Z" fill="black"/>
</g>
<g opacity="0.2">
<path d="M503.035 355.616C503.006 355.618 502.977 355.613 502.951 355.601C502.925 355.589 502.903 355.57 502.886 355.547C502.868 355.529 502.854 355.508 502.845 355.485C502.835 355.462 502.83 355.438 502.83 355.413C502.83 355.388 502.835 355.363 502.845 355.34C502.854 355.317 502.868 355.297 502.886 355.279C502.945 355.279 508.154 351.393 515.219 347.12C521.748 343.155 531.233 338.079 539.389 336.126C539.412 336.12 539.437 336.119 539.46 336.123C539.484 336.127 539.507 336.135 539.528 336.148C539.548 336.161 539.566 336.178 539.579 336.198C539.593 336.218 539.602 336.241 539.607 336.265C539.614 336.288 539.617 336.313 539.615 336.337C539.612 336.362 539.604 336.385 539.592 336.407C539.58 336.428 539.564 336.447 539.544 336.462C539.524 336.476 539.502 336.487 539.478 336.493C523.96 340.21 503.323 355.428 503.114 355.577C503.092 355.597 503.065 355.611 503.035 355.616Z" fill="black"/>
</g>
<path opacity="0.2" d="M504.265 349.46C504.215 349.509 499.641 354.417 494.343 364.271C491.071 370.352 488.297 376.687 486.048 383.216C483.028 392.014 480.774 401.056 479.311 410.241L469.181 454.595C466.834 462.031 463.911 469.273 460.44 476.257C454.487 488.649 446.063 502.191 435.893 506.801L454.695 560.91C456.124 544.83 457.989 528.162 460.291 510.905C462.706 493.06 465.431 475.903 468.467 459.433L479.649 410.31C483.112 388.887 489.69 373.55 494.591 364.459C499.899 354.605 504.454 349.757 504.513 349.717L504.265 349.46Z" fill="black"/>
<path d="M697.524 379.548C733.68 424.249 751.877 482.919 751.877 482.919C776.155 563.527 727.231 594.25 727.231 594.25L574.354 594.498C586.796 567.255 564.64 552.454 564.64 552.454L584.93 545.117L585.684 454.436C584.196 405.433 596.182 358.412 596.182 358.412C602.72 340.567 598.305 322.465 597.551 322.098C597.511 322.098 658.978 331.902 697.524 379.548Z" fill="white"/>
<g opacity="0.2">
<path d="M602.373 576.395C602.325 576.395 602.278 576.377 602.243 576.344C602.208 576.311 602.187 576.265 602.185 576.217C602.183 576.193 602.187 576.168 602.195 576.146C602.204 576.123 602.217 576.102 602.233 576.084C602.25 576.067 602.27 576.053 602.292 576.043C602.315 576.033 602.339 576.029 602.363 576.029L687.463 573.719C688.743 573.719 690.033 573.719 691.313 573.788C693.298 573.92 695.255 573.986 697.187 573.986C712.616 573.986 724.552 569.723 732.727 561.277C739.99 553.762 742.848 544.265 743.959 537.623C744.688 533.411 744.915 529.128 744.634 524.864C743.542 481.144 728.282 444.612 715.672 421.662C701.969 396.748 688.386 382.076 688.257 381.927C688.24 381.91 688.226 381.889 688.216 381.866C688.206 381.843 688.201 381.818 688.201 381.793C688.201 381.769 688.206 381.744 688.216 381.721C688.226 381.698 688.24 381.677 688.257 381.66C688.292 381.627 688.338 381.609 688.386 381.609C688.434 381.609 688.48 381.627 688.515 381.66C688.654 381.808 702.257 396.53 715.949 421.453C723.883 435.848 730.348 451.003 735.247 466.69C741.161 485.531 744.446 505.096 745.011 524.834C745.286 529.125 745.056 533.434 744.326 537.672C743.659 541.763 742.496 545.758 740.863 549.569C738.978 553.975 736.312 558.005 732.995 561.465C724.75 569.981 712.725 574.284 697.187 574.284C695.275 574.284 693.311 574.221 691.293 574.095C690.023 574.006 688.743 573.986 687.473 574.016L602.413 576.326L602.373 576.395Z" fill="black"/>
</g>
<g opacity="0.2">
<path d="M652.667 446.912C652.623 446.913 652.581 446.899 652.546 446.871C652.512 446.844 652.488 446.806 652.479 446.763C650.936 436.998 651.273 427.028 653.471 417.389C655.411 408.765 659.368 400.723 665.02 393.923C671.896 385.823 681.312 379.925 693.02 376.395C693.067 376.383 693.117 376.39 693.16 376.414C693.202 376.438 693.234 376.477 693.248 376.524C693.256 376.547 693.259 376.571 693.257 376.595C693.255 376.619 693.248 376.642 693.237 376.664C693.226 376.685 693.211 376.704 693.192 376.719C693.173 376.734 693.152 376.746 693.129 376.752C666.786 384.683 657.221 403.281 653.838 417.468C651.646 427.058 651.309 436.978 652.846 446.694C652.855 446.742 652.844 446.792 652.816 446.833C652.788 446.874 652.746 446.902 652.697 446.912H652.667Z" fill="black"/>
</g>
<g opacity="0.2">
<path d="M682.502 376.138C682.457 376.151 682.409 376.151 682.364 376.138C663.939 357.073 642.438 345.802 627.644 339.705C618.63 335.886 609.266 332.951 599.684 330.941C599.657 330.941 599.63 330.935 599.605 330.924C599.58 330.912 599.558 330.896 599.54 330.875C599.522 330.854 599.509 330.83 599.502 330.803C599.494 330.777 599.493 330.749 599.497 330.722C599.502 330.695 599.512 330.67 599.527 330.647C599.543 330.624 599.563 330.605 599.586 330.591C599.61 330.577 599.636 330.568 599.663 330.565C599.69 330.562 599.718 330.565 599.744 330.574C609.352 332.589 618.743 335.531 627.783 339.358C637.094 343.19 646.057 347.817 654.572 353.187C664.784 359.613 674.196 367.228 682.612 375.87C682.629 375.887 682.643 375.908 682.653 375.931C682.663 375.954 682.667 375.979 682.667 376.004C682.667 376.029 682.663 376.053 682.653 376.076C682.643 376.099 682.629 376.12 682.612 376.138C682.576 376.149 682.538 376.149 682.502 376.138Z" fill="black"/>
</g>
<path d="M631.871 392.624H608.217C605.948 392.624 604.109 394.462 604.109 396.729C604.109 398.995 605.948 400.833 608.217 400.833H631.871C634.139 400.833 635.979 398.995 635.979 396.729C635.979 394.462 634.139 392.624 631.871 392.624Z" fill="white"/>
<path d="M578.015 581.263C567.726 585.952 555.313 581.184 555.313 581.184L540.302 575.523L526.312 570.239C525.466 569.653 524.487 569.289 523.464 569.18C522.442 569.071 521.408 569.22 520.458 569.614C515.983 570.735 511.002 571.597 511.002 571.597C508.297 572.116 505.663 572.951 503.154 574.085L490.831 580.43C488.679 581.393 486.33 581.838 483.975 581.729C481.619 581.621 479.322 580.962 477.268 579.806C470.541 584.287 465.064 578.814 465.064 578.814C462.95 581.303 461.71 580.985 461.71 580.985L459.418 574.432L473.527 559.661L467.673 563.27C464.503 565.695 460.499 566.765 456.541 566.244L454.427 559.939L479.381 546.059L501.209 543.204C514.405 540.716 523.037 543.075 523.037 543.075L555.899 551.908C562.497 554.764 564.739 552.404 564.739 552.404C580.962 564.648 578.015 581.263 578.015 581.263Z" fill="#F9B499"/>
<path d="M578.015 581.263C567.726 585.952 555.313 581.184 555.313 581.184L540.302 575.523L540.242 575.404C566.257 574.839 564.65 552.454 564.65 552.454C580.962 564.648 578.015 581.263 578.015 581.263Z" fill="#F29681"/>
<path d="M474.896 558.481C474.86 558.49 474.823 558.49 474.787 558.481C474.754 558.446 474.736 558.4 474.736 558.352C474.736 558.305 474.754 558.258 474.787 558.224C474.847 558.134 480.74 549.936 487.735 549.192L504.741 546.446C504.767 546.437 504.795 546.434 504.822 546.437C504.849 546.44 504.876 546.449 504.899 546.463C504.922 546.477 504.943 546.496 504.958 546.519C504.973 546.542 504.983 546.567 504.988 546.594C504.992 546.621 504.991 546.649 504.983 546.675C504.976 546.702 504.963 546.726 504.945 546.747C504.927 546.768 504.905 546.784 504.88 546.796C504.855 546.807 504.828 546.813 504.801 546.813L487.745 549.549C480.929 550.283 475.105 558.342 475.055 558.471C475.031 558.484 475.004 558.491 474.977 558.493C474.949 558.495 474.922 558.491 474.896 558.481Z" fill="#F29681"/>
<path d="M465.064 579.013C465.039 579.013 465.015 579.008 464.992 578.998C464.97 578.988 464.95 578.972 464.935 578.953C464.916 578.936 464.9 578.916 464.89 578.893C464.88 578.87 464.874 578.845 464.874 578.819C464.874 578.794 464.88 578.769 464.89 578.746C464.9 578.723 464.916 578.702 464.935 578.685L484.163 559.929C485.612 558.497 487.412 557.471 489.382 556.954L510.576 551.492C510.6 551.486 510.625 551.485 510.649 551.489C510.674 551.493 510.697 551.501 510.719 551.514C510.74 551.527 510.758 551.544 510.773 551.564C510.787 551.584 510.798 551.607 510.804 551.631C510.816 551.678 510.809 551.728 510.785 551.771C510.761 551.813 510.722 551.845 510.675 551.859L489.482 557.351C487.575 557.846 485.83 558.83 484.421 560.206L465.213 578.953C465.195 578.975 465.172 578.993 465.146 579.003C465.12 579.013 465.092 579.017 465.064 579.013Z" fill="#F29681"/>
<path d="M477.119 579.756C477.089 579.756 477.06 579.749 477.034 579.735C477.009 579.721 476.986 579.701 476.97 579.677C476.801 579.408 476.691 579.106 476.648 578.792C476.605 578.477 476.63 578.157 476.722 577.853C477.059 576.653 478.25 575.582 480.274 574.67L513.503 556.647C513.721 556.498 517.322 554.258 524.417 554.664C524.441 554.664 524.464 554.669 524.486 554.679C524.508 554.689 524.528 554.703 524.544 554.721C524.559 554.738 524.571 554.759 524.579 554.782C524.586 554.805 524.588 554.829 524.585 554.853C524.585 554.877 524.58 554.901 524.571 554.923C524.561 554.946 524.547 554.966 524.53 554.983C524.512 554.999 524.491 555.012 524.468 555.021C524.445 555.029 524.421 555.033 524.397 555.031C517.332 554.664 513.711 557.014 513.671 557.014L480.433 575.047C478.538 575.89 477.387 576.901 477.089 577.972C477.013 578.223 476.99 578.488 477.02 578.749C477.051 579.01 477.135 579.261 477.268 579.489C477.301 579.525 477.32 579.573 477.32 579.622C477.32 579.672 477.301 579.72 477.268 579.756C477.219 579.773 477.167 579.773 477.119 579.756Z" fill="#F29681"/>
<path d="M595.378 329.87C590.119 343.363 580.079 346.505 580.079 346.505C560.155 354.238 549.321 339.358 549.321 339.358C549.321 339.358 572.756 356.211 590.06 335.283C593.622 330.231 596.399 324.669 598.295 318.787C598.295 318.787 597.085 325.954 595.378 329.87Z" fill="#F29681"/>
<path opacity="0.2" d="M542.484 365.798C543.104 368.298 543.941 370.739 544.985 373.094C544.985 373.094 555.809 357.302 562.656 352.196C570.153 360.139 575.772 369.662 579.096 380.064C579.096 380.064 591.33 371.795 594.971 358.759C591.06 364.884 586.296 370.422 580.823 375.206C580.823 375.206 579.83 364.459 563.281 348.31L562.527 348.092C562.527 348.092 549.946 351.046 542.484 365.798Z" fill="black"/>
<path opacity="0.2" d="M506.23 505.8C506.23 505.8 520.597 404.441 538.268 362.546C538.268 362.546 534.061 352.067 538.962 337.167C530.241 356.729 523.806 377.23 519.783 398.265C519.783 398.265 508.968 451.69 507.946 481.422L506.23 505.8Z" fill="black"/>
<path d="M301.213 578.448L260.335 475.592C259.45 473.368 259.109 470.965 259.34 468.582C259.57 466.199 260.366 463.906 261.661 461.892C262.956 459.878 264.713 458.201 266.785 457.001C268.858 455.801 271.188 455.112 273.581 454.992L374.784 449.856C383.369 449.419 391.862 451.79 398.978 456.609C406.093 461.428 411.442 468.434 414.214 476.564L449.863 581.005C451.318 585.342 454.182 589.069 457.999 591.593C460.021 592.915 462.247 593.897 464.587 594.498H324.877C319.777 594.498 314.795 592.968 310.576 590.107C306.357 587.245 303.095 583.183 301.213 578.448Z" fill="#0CADB7"/>
<path d="M377.671 449.836L398.507 449.192C403.43 449.089 408.259 450.544 412.304 453.348C416.349 456.153 419.403 460.163 421.03 464.806L461.988 581.679H566.863C567.697 581.679 568.524 581.844 569.295 582.163C570.066 582.483 570.766 582.951 571.356 583.541C571.946 584.132 572.414 584.832 572.732 585.603C573.051 586.374 573.214 587.2 573.213 588.034C573.213 589.715 572.545 591.327 571.356 592.517C570.167 593.707 568.555 594.376 566.872 594.379L464.568 594.498C461.187 593.643 458.072 591.963 455.502 589.608C452.932 587.253 450.987 584.297 449.843 581.005L414.194 476.564C414.194 476.564 407.05 451.333 377.671 449.836Z" fill="#0CADB7"/>
<path opacity="0.2" d="M377.671 449.836L398.507 449.192C403.43 449.089 408.259 450.544 412.304 453.348C416.349 456.153 419.403 460.163 421.03 464.806L461.988 581.679H566.863C567.697 581.679 568.524 581.844 569.295 582.163C570.066 582.483 570.766 582.951 571.356 583.541C571.946 584.132 572.414 584.832 572.732 585.603C573.051 586.374 573.214 587.2 573.213 588.034C573.213 589.715 572.545 591.327 571.356 592.517C570.167 593.707 568.555 594.376 566.872 594.379L464.568 594.498C461.187 593.643 458.072 591.963 455.502 589.608C452.932 587.253 450.987 584.297 449.843 581.005L414.194 476.564C414.194 476.564 407.05 451.333 377.671 449.836Z" fill="black"/>
<path opacity="0.2" d="M356.081 537.652C362.027 537.652 366.847 532.837 366.847 526.896C366.847 520.955 362.027 516.14 356.081 516.14C350.136 516.14 345.316 520.955 345.316 526.896C345.316 532.837 350.136 537.652 356.081 537.652Z" fill="black"/>
<path d="M379.289 296.352H170.035C162.676 296.352 156.71 302.313 156.71 309.666V476.574C156.71 483.927 162.676 489.888 170.035 489.888H379.289C386.648 489.888 392.614 483.927 392.614 476.574V309.666C392.614 302.313 386.648 296.352 379.289 296.352Z" fill="#E6E6E6"/>
<path d="M364.664 331.674C362.483 331.674 360.352 331.028 358.539 329.818C356.726 328.607 355.313 326.886 354.479 324.873C353.645 322.86 353.427 320.645 353.853 318.508C354.279 316.371 355.33 314.409 356.873 312.869C358.415 311.329 360.38 310.28 362.519 309.857C364.658 309.433 366.875 309.652 368.889 310.487C370.903 311.323 372.624 312.736 373.834 314.548C375.044 316.361 375.689 318.491 375.687 320.67C375.684 323.59 374.522 326.389 372.455 328.452C370.388 330.515 367.586 331.674 364.664 331.674ZM364.664 310.152C362.581 310.15 360.545 310.765 358.812 311.92C357.08 313.074 355.729 314.716 354.931 316.638C354.133 318.56 353.923 320.675 354.328 322.716C354.733 324.757 355.735 326.632 357.207 328.104C358.678 329.576 360.554 330.579 362.596 330.986C364.639 331.393 366.756 331.185 368.68 330.389C370.604 329.593 372.249 328.245 373.406 326.515C374.563 324.785 375.181 322.751 375.181 320.67C375.178 317.883 374.07 315.211 372.098 313.239C370.127 311.267 367.453 310.157 364.664 310.152Z" fill="white"/>
<path d="M262.905 354.555H231.78V385.774H262.905V354.555Z" fill="white"/>
<path d="M350.912 354.555H273.481V365.629H350.912V354.555Z" fill="#CCCCCC"/>
<path opacity="0.25" d="M374.933 374.71H273.481V385.784H374.933V374.71Z" fill="white"/>
<path d="M262.657 411.282H231.531V442.5H262.657V411.282Z" fill="white"/>
<path d="M350.664 411.282H273.233V422.356H350.664V411.282Z" fill="#CCCCCC"/>
<path opacity="0.25" d="M374.685 431.427H273.233V442.5H374.685V431.427Z" fill="white"/>
<path opacity="0.25" d="M374.943 457.054H231.531V477.823H374.943V457.054Z" fill="white"/>
<path d="M384.269 343.214H229.488C229.422 343.214 229.359 343.188 229.312 343.141C229.266 343.095 229.24 343.032 229.24 342.966C229.24 342.9 229.266 342.837 229.312 342.791C229.359 342.744 229.422 342.718 229.488 342.718H384.269C384.335 342.718 384.398 342.744 384.445 342.791C384.491 342.837 384.518 342.9 384.518 342.966C384.518 343.032 384.491 343.095 384.445 343.141C384.398 343.188 384.335 343.214 384.269 343.214Z" fill="#CCCCCC"/>
<path d="M383.853 397.849H229.071C229.012 397.837 228.96 397.806 228.922 397.759C228.884 397.713 228.863 397.656 228.863 397.596C228.863 397.536 228.884 397.479 228.922 397.432C228.96 397.386 229.012 397.355 229.071 397.343H383.853C383.89 397.336 383.929 397.337 383.966 397.346C384.003 397.355 384.037 397.373 384.067 397.397C384.096 397.421 384.12 397.451 384.136 397.486C384.153 397.52 384.161 397.558 384.161 397.596C384.161 397.634 384.153 397.672 384.136 397.706C384.12 397.741 384.096 397.771 384.067 397.795C384.037 397.819 384.003 397.837 383.966 397.846C383.929 397.855 383.89 397.856 383.853 397.849Z" fill="#CCCCCC"/>
<path d="M257.547 547.229V572.479C257.609 575.41 257.085 578.323 256.006 581.048C254.927 583.773 253.314 586.256 251.262 588.35C249.21 590.444 246.76 592.108 244.056 593.244C241.352 594.38 238.448 594.965 235.515 594.965C232.582 594.965 229.678 594.38 226.974 593.244C224.27 592.108 221.82 590.444 219.768 588.35C217.716 586.256 216.104 583.773 215.024 581.048C213.945 578.323 213.421 575.41 213.483 572.479V547.229H257.547Z" fill="#0CADB7"/>
<path opacity="0.2" d="M257.547 556.36V572.499C257.539 577.224 256.011 581.82 253.189 585.61C250.366 589.4 246.398 592.183 241.871 593.546C237.344 594.91 232.498 594.782 228.049 593.183C223.6 591.583 219.784 588.596 217.165 584.663C223.495 585.437 247.337 586.21 257.547 556.34V556.36Z" fill="black"/>
<path d="M214.863 579.26H213.077C209.891 579.17 206.867 577.842 204.645 575.558C202.424 573.275 201.182 570.216 201.182 567.032C201.182 563.848 202.424 560.789 204.645 558.505C206.867 556.222 209.891 554.894 213.077 554.803H213.464H213.791V572.499C213.801 574.662 214.136 576.81 214.783 578.874L214.863 579.26ZM213.077 555.467C210.055 555.556 207.187 556.817 205.082 558.984C202.976 561.15 201.798 564.051 201.798 567.071C201.798 570.092 202.976 572.993 205.082 575.16C207.187 577.326 210.055 578.587 213.077 578.676H214.069C213.494 576.674 213.203 574.602 213.206 572.519V555.467H213.077Z" fill="#0CADB7"/>
<path d="M156.343 598.602H701.215V610.756C701.221 612.594 700.863 614.415 700.163 616.114C699.462 617.813 698.433 619.358 697.135 620.659C695.836 621.961 694.293 622.993 692.594 623.697C690.896 624.402 689.075 624.765 687.235 624.765H156.343V598.602Z" fill="#9EA0A3"/>
<path d="M936.424 593.873H700.779C696.411 593.873 692.871 597.409 692.871 601.77C692.871 606.131 696.411 609.666 700.779 609.666H936.424C940.791 609.666 944.332 606.131 944.332 601.77C944.332 597.409 940.791 593.873 936.424 593.873Z" fill="#9EA0A3"/>
<path d="M940.353 537.87V545.653C940.353 558.442 935.269 570.707 926.218 579.75C917.168 588.793 904.893 593.873 892.093 593.873H875.821C863.022 593.873 850.747 588.793 841.696 579.75C832.646 570.707 827.561 558.442 827.561 545.653V537.87C827.561 537.153 827.846 536.464 828.354 535.957C828.862 535.449 829.551 535.164 830.27 535.164H937.645C938.192 535.166 938.726 535.333 939.177 535.642C939.628 535.952 939.976 536.39 940.175 536.899C940.289 537.21 940.35 537.539 940.353 537.87Z" fill="#0CADB7"/>
<path opacity="0.2" d="M940.353 537.871V545.653C940.353 558.442 935.269 570.707 926.218 579.75C917.168 588.793 904.893 593.873 892.093 593.873H875.821C865.241 593.88 854.955 590.394 846.561 583.96C862.436 587.281 917.007 593.982 940.175 536.859C940.294 537.183 940.354 537.526 940.353 537.871Z" fill="black"/>
<g opacity="0.2">
<path d="M937.119 543.502H831.302V543.997H937.119V543.502Z" fill="black"/>
</g>
<g opacity="0.2">
<path d="M933.934 549.341H833.851V549.837H933.934V549.341Z" fill="black"/>
</g>
<path d="M839.636 535.164V495.152C839.626 493.996 839.89 492.854 840.408 491.82C840.925 490.786 841.681 489.889 842.612 489.204C844.367 487.994 846.522 487.511 848.625 487.856C848.625 487.856 853.586 487.737 856.096 494.954V436.027C856.11 432.18 857.647 428.495 860.374 425.778C863.1 423.062 866.792 421.535 870.642 421.533C874.502 421.533 878.205 423.065 880.934 425.792C883.664 428.52 885.197 432.219 885.197 436.076V535.134L839.636 535.164Z" fill="white"/>
<path d="M899.207 446.109C902.92 446.109 906.481 447.583 909.106 450.206C911.732 452.829 913.207 456.387 913.207 460.097V535.035H885.197V460.097C885.197 458.259 885.56 456.44 886.264 454.742C886.968 453.044 888 451.502 889.301 450.202C890.602 448.903 892.147 447.873 893.846 447.171C895.546 446.468 897.368 446.108 899.207 446.109Z" fill="white"/>
<path opacity="0.2" d="M899.207 446.109C902.92 446.109 906.481 447.583 909.106 450.206C911.732 452.829 913.207 456.387 913.207 460.097V535.035H885.197V460.097C885.197 458.259 885.56 456.44 886.264 454.742C886.968 453.044 888 451.502 889.301 450.202C890.602 448.903 892.147 447.873 893.846 447.171C895.546 446.468 897.368 446.108 899.207 446.109Z" fill="black"/>
<path d="M920.996 478.567C922.017 478.567 923.029 478.768 923.973 479.158C924.916 479.549 925.774 480.121 926.496 480.843C927.218 481.565 927.791 482.422 928.182 483.365C928.573 484.308 928.775 485.318 928.775 486.339V535.035H913.207V486.349C913.206 485.326 913.406 484.314 913.797 483.369C914.188 482.424 914.762 481.566 915.485 480.843C916.209 480.12 917.068 479.547 918.014 479.156C918.959 478.766 919.973 478.565 920.996 478.567Z" fill="white"/>
<g opacity="0.2">
<path d="M847.98 496.104H847.484V534.658H847.98V496.104Z" fill="black"/>
</g>
<g opacity="0.2">
<path d="M870.88 437.712H870.384V535.224H870.88V437.712Z" fill="black"/>
</g>
<g opacity="0.2">
<path d="M921.055 488.084H920.559V535.224H921.055V488.084Z" fill="black"/>
</g>
<path d="M781.067 194.359C765.597 194.387 750.483 198.995 737.633 207.603C724.784 216.211 714.777 228.431 708.877 242.719C702.976 257.008 701.447 272.723 704.483 287.88C707.518 303.036 714.982 316.953 725.931 327.873C736.88 338.792 750.823 346.224 765.998 349.228C781.173 352.232 796.898 350.674 811.187 344.752C825.476 338.829 837.688 328.807 846.278 315.952C854.868 303.097 859.452 287.986 859.45 272.529C859.442 262.253 857.408 252.08 853.465 242.59C849.521 233.099 843.744 224.479 836.466 217.219C829.187 209.96 820.548 204.205 811.042 200.283C801.537 196.36 791.351 194.347 781.067 194.359ZM780.134 343.611C740.189 343.611 707.813 311.708 707.813 272.341C707.813 232.973 740.189 201.071 780.134 201.071C820.08 201.071 852.465 232.983 852.465 272.341C852.465 311.698 820.08 343.611 780.134 343.611Z" fill="#0CADB7"/>
<path d="M846.442 324.13C859.104 307.922 865.292 287.593 863.807 267.085C862.321 246.578 853.269 227.351 838.403 213.133C823.538 198.915 803.919 190.718 783.349 190.13C762.779 189.543 742.723 196.607 727.07 209.954C711.416 223.301 701.279 241.98 698.624 262.369C695.97 282.759 700.986 303.407 712.7 320.312C724.415 337.216 741.994 349.173 762.029 353.864C782.065 358.555 803.13 355.647 821.141 345.702L813.343 330.544C799.06 338.573 782.31 341.039 766.317 337.469C750.323 333.898 736.216 324.544 726.712 311.205C717.207 297.866 712.976 281.486 714.832 265.217C716.689 248.948 724.502 233.94 736.769 223.082C749.035 212.223 764.887 206.282 781.275 206.401C797.662 206.52 813.426 212.691 825.534 223.726C837.641 234.761 845.235 249.881 846.855 266.175C848.475 282.469 844.006 298.786 834.308 311.986L846.442 324.13Z" fill="white"/>
<path d="M800.047 315.009H763.078C762.322 315.009 761.709 315.622 761.709 316.378C761.709 317.133 762.322 317.746 763.078 317.746H800.047C800.804 317.746 801.417 317.133 801.417 316.378C801.417 315.622 800.804 315.009 800.047 315.009Z" fill="#0CADB7"/>
<path d="M773.784 300.208H788.598L781.255 287.271L773.784 300.208Z" fill="white"/>
<path d="M783.379 265.748H779.142V280.42H783.379V265.748Z" fill="#0CADB7"/>
<path d="M811.011 265.877H806.775V280.549H811.011V265.877Z" fill="#0CADB7"/>
<path d="M838.396 265.877H834.159V280.549H838.396V265.877Z" fill="#0CADB7"/>
<path d="M789.729 268.99H787.982V277.327H789.729V268.99Z" fill="#0CADB7"/>
<path d="M795.573 268.99H793.826V277.327H795.573V268.99Z" fill="#0CADB7"/>
<path d="M801.298 268.99H799.551V277.327H801.298V268.99Z" fill="#0CADB7"/>
<path d="M817.49 268.861H815.744V277.198H817.49V268.861Z" fill="#0CADB7"/>
<path d="M823.334 268.861H821.588V277.198H823.334V268.861Z" fill="#0CADB7"/>
<path d="M829.059 268.861H827.313V277.198H829.059V268.861Z" fill="#0CADB7"/>
<path d="M844.746 268.99H843V277.327H844.746V268.99Z" fill="#0CADB7"/>
<path d="M782.873 174.829H777.396V191.742H782.873V174.829Z" fill="#0CADB7"/>
<path d="M826.321 373.838H738.432C733.139 373.838 728.848 378.125 728.848 383.414C728.848 388.703 733.139 392.991 738.432 392.991H826.321C831.614 392.991 835.905 388.703 835.905 383.414C835.905 378.125 831.614 373.838 826.321 373.838Z" fill="#CCCCCC"/>
<path d="M725.613 397.908H725.554C725.506 397.892 725.467 397.858 725.445 397.814C725.423 397.769 725.419 397.718 725.435 397.67C736.468 365.322 722.577 341.648 708.994 327.481C702.462 320.792 695.131 314.932 687.166 310.033C683.736 307.886 680.178 305.952 676.51 304.243C658.382 295.37 639.551 276.891 639.362 276.703C639.329 276.668 639.311 276.622 639.311 276.574C639.311 276.526 639.329 276.48 639.362 276.445C639.379 276.426 639.399 276.411 639.423 276.4C639.446 276.39 639.471 276.385 639.496 276.385C639.521 276.385 639.546 276.39 639.569 276.4C639.593 276.411 639.613 276.426 639.63 276.445C639.818 276.623 658.601 295.063 676.668 303.906C680.351 305.613 683.92 307.554 687.354 309.716C695.361 314.618 702.729 320.492 709.292 327.203C717.983 336.265 724.006 346.129 727.151 356.528C731.12 369.535 730.673 383.414 725.782 397.779C725.77 397.815 725.748 397.847 725.718 397.87C725.687 397.893 725.651 397.906 725.613 397.908Z" fill="#0CADB7"/>
<path d="M678.107 192.485H499.235C493.629 192.485 489.085 197.024 489.085 202.622C489.085 208.221 493.629 212.759 499.235 212.759H678.107C683.713 212.759 688.257 208.221 688.257 202.622C688.257 197.024 683.713 192.485 678.107 192.485Z" fill="#CCCCCC"/>
<path d="M598.761 242.243L598.265 256.3V261.257C591.032 302.627 562.447 306.047 562.447 306.047C536.243 310.261 524.317 293.794 519.257 282.254C516.999 277.155 515.826 271.642 515.814 266.065V226.648L525.528 226.202C525.528 226.202 529.497 205.056 542.703 194.855C542.703 194.855 536.978 209.656 535.985 224.596H557.268C557.268 224.596 559.014 200.099 555.651 191.514C555.78 191.663 564.005 201.021 565.86 223.476H584.285C584.285 223.476 584.901 209.924 578.431 200.347C578.431 200.347 584.156 205.304 587.639 218.509C587.679 218.489 593.781 236.522 598.761 242.243Z" fill="#F9B499"/>
<path d="M598.761 242.243V243.333L598.692 243.472C589.881 239.982 583.988 229.186 583.988 229.186L565.692 229.682L561.326 219.609L560.83 229.93L533.197 230.306C532.506 227.379 532.442 224.338 533.009 221.384C530.222 224.022 528.39 227.508 527.8 231.298H515.814V226.609L525.528 226.162C525.528 226.162 529.497 205.016 542.703 194.815C542.703 194.815 536.978 209.616 535.985 224.556H557.268C557.268 224.556 559.014 200.06 555.651 191.474C555.78 191.623 564.005 200.982 565.86 223.436H584.285C584.285 223.436 584.901 209.884 578.431 200.307C578.431 200.307 584.156 205.264 587.639 218.469C587.679 218.489 593.781 236.522 598.761 242.243Z" fill="#F29681"/>
<path d="M711.425 398.969C672.204 333.29 598.315 322.475 598.315 322.475V256.3L598.811 242.243C593.85 236.522 587.728 218.45 587.728 218.45C584.246 205.264 578.521 200.288 578.521 200.288C584.99 209.864 584.375 223.416 584.375 223.416H565.9C564.045 200.962 555.819 191.603 555.69 191.454C559.054 200.04 557.308 224.537 557.308 224.537H536.025C537.017 209.616 542.742 194.795 542.742 194.795C529.546 205.056 525.568 226.232 525.568 226.232L515.854 226.678L504.027 227.223C506.894 201.448 516.975 190.027 516.975 190.027C502.876 202.052 500.673 222.028 500.346 226.708C500.33 226.989 500.21 227.254 500.009 227.451C499.815 227.657 499.555 227.787 499.274 227.818C499.104 227.837 498.931 227.818 498.768 227.764C498.605 227.711 498.456 227.622 498.33 227.506C498.203 227.389 498.104 227.247 498.038 227.089C497.971 226.931 497.94 226.76 497.945 226.589C498.58 198.691 522.323 182.314 522.323 182.314C538.506 168.375 551.95 173.976 551.95 173.976C540.381 161.535 552.823 153.326 552.823 153.326C549.846 168.008 560.046 172.48 560.046 172.48C616.184 151.958 625.402 229.077 625.402 229.077L627.267 249.351C629.004 267.513 648.966 288.441 661.002 299.504C665.099 303.258 669.43 306.748 673.97 309.953C690.023 321.344 702.485 338.912 702.485 338.912C729.344 371.726 711.425 398.969 711.425 398.969Z" fill="#0CADB7"/>
<path d="M586.627 244.295L601.51 240.171C601.674 240.127 601.845 240.118 602.013 240.146C602.181 240.173 602.341 240.236 602.482 240.33C602.624 240.423 602.744 240.546 602.835 240.689C602.925 240.833 602.984 240.994 603.008 241.162C603.053 241.449 602.991 241.743 602.834 241.988C602.676 242.233 602.435 242.411 602.155 242.49L587.619 246.674L586.627 244.295Z" fill="white"/>
<path d="M605.737 268.365C613.299 268.365 619.429 262.156 619.429 254.496C619.429 246.836 613.299 240.627 605.737 240.627C598.175 240.627 592.044 246.836 592.044 254.496C592.044 262.156 598.175 268.365 605.737 268.365Z" fill="#F9B499"/>
<path d="M562.537 348.092C557.408 349.837 552.761 352.762 548.97 356.629C545.179 360.496 542.349 365.199 540.708 370.358C529.794 344.116 543.834 328.373 543.834 328.373C544.99 332.99 547.319 337.23 550.595 340.685C553.872 344.139 557.985 346.69 562.537 348.092Z" fill="white"/>
<path opacity="0.4" d="M562.537 348.092C557.408 349.837 552.761 352.762 548.97 356.629C545.179 360.496 542.349 365.199 540.708 370.358C529.794 344.116 543.834 328.373 543.834 328.373C544.99 332.99 547.319 337.23 550.595 340.685C553.872 344.139 557.985 346.69 562.537 348.092Z" fill="white"/>
<path d="M563.291 348.31C563.291 348.31 579.096 363.389 580.833 375.206C580.833 375.206 594.565 363.23 597.968 352.404C597.968 352.404 602.492 335.551 597.511 322.137C597.511 322.098 593.801 352.265 563.291 348.31Z" fill="white"/>
<path opacity="0.4" d="M563.291 348.31C563.291 348.31 579.096 363.389 580.833 375.206C580.833 375.206 594.565 363.23 597.968 352.404C597.968 352.404 602.492 335.551 597.511 322.137C597.511 322.098 593.801 352.265 563.291 348.31Z" fill="white"/>
<path d="M716.336 593.873H144.576C140.208 593.873 136.668 597.409 136.668 601.77C136.668 606.131 140.208 609.666 144.576 609.666H716.336C720.703 609.666 724.244 606.131 724.244 601.77C724.244 597.409 720.703 593.873 716.336 593.873Z" fill="#E1E1E2"/>
<path d="M213.662 296.411V489.938H168.855C165.321 489.938 161.931 488.535 159.432 486.038C156.933 483.541 155.53 480.155 155.53 476.623V309.725C155.53 306.194 156.933 302.808 159.432 300.311C161.931 297.814 165.321 296.411 168.855 296.411H213.662Z" fill="white"/>
<path d="M189.264 335.908H164.489C162.461 335.908 160.818 337.55 160.818 339.576C160.818 341.602 162.461 343.244 164.489 343.244H189.264C191.292 343.244 192.935 341.602 192.935 339.576C192.935 337.55 191.292 335.908 189.264 335.908Z" fill="white"/>
<path d="M166.364 313.146C167.981 313.146 169.291 311.836 169.291 310.221C169.291 308.606 167.981 307.297 166.364 307.297C164.748 307.297 163.437 308.606 163.437 310.221C163.437 311.836 164.748 313.146 166.364 313.146Z" fill="white"/>
<path d="M175.453 313.265C177.069 313.265 178.38 311.955 178.38 310.34C178.38 308.725 177.069 307.416 175.453 307.416C173.836 307.416 172.526 308.725 172.526 310.34C172.526 311.955 173.836 313.265 175.453 313.265Z" fill="white"/>
<path d="M184.531 313.394C186.148 313.394 187.458 312.084 187.458 310.469C187.458 308.854 186.148 307.544 184.531 307.544C182.915 307.544 181.604 308.854 181.604 310.469C181.604 312.084 182.915 313.394 184.531 313.394Z" fill="white"/>
<path d="M189.453 353.187H168.914C168.849 353.187 168.785 353.161 168.739 353.115C168.692 353.068 168.666 353.005 168.666 352.939C168.666 352.874 168.692 352.811 168.739 352.764C168.785 352.718 168.849 352.692 168.914 352.692H189.453C189.518 352.692 189.582 352.718 189.628 352.764C189.675 352.811 189.701 352.874 189.701 352.939C189.701 353.005 189.675 353.068 189.628 353.115C189.582 353.161 189.518 353.187 189.453 353.187Z" fill="white"/>
<path d="M189.383 363.765H168.855C168.789 363.765 168.726 363.739 168.679 363.693C168.633 363.646 168.607 363.583 168.607 363.517C168.607 363.452 168.633 363.389 168.679 363.342C168.726 363.296 168.789 363.27 168.855 363.27H189.383C189.449 363.27 189.512 363.296 189.559 363.342C189.605 363.389 189.631 363.452 189.631 363.517C189.631 363.583 189.605 363.646 189.559 363.693C189.512 363.739 189.449 363.765 189.383 363.765Z" fill="white"/>
<path d="M189.383 373.947H168.855C168.789 373.947 168.726 373.921 168.679 373.874C168.633 373.828 168.607 373.765 168.607 373.699C168.607 373.633 168.633 373.57 168.679 373.524C168.726 373.477 168.789 373.451 168.855 373.451H189.383C189.449 373.451 189.512 373.477 189.559 373.524C189.605 373.57 189.631 373.633 189.631 373.699C189.631 373.765 189.605 373.828 189.559 373.874C189.512 373.921 189.449 373.947 189.383 373.947Z" fill="white"/>
<g opacity="0.2">
<path d="M899.584 459.602H899.455V534.857H899.584V459.602Z" fill="black"/>
</g>
<path d="M751.628 188.758L764.08 199.078L761.342 218.608L780.948 206.424L799.184 218.608L795.325 199.336L808.64 188.758H751.628Z" fill="white"/>
<path opacity="0.2" d="M751.628 188.758L764.08 199.078L761.342 218.608L780.948 206.424L799.184 218.608L795.325 199.336L808.64 188.758H751.628Z" fill="black"/>
<path opacity="0.32" d="M539.417 249.083C539.477 239.54 531.752 231.755 522.163 231.695C512.573 231.635 504.751 239.322 504.691 248.865C504.631 258.409 512.356 266.194 521.945 266.254C531.535 266.314 539.357 258.627 539.417 249.083Z" fill="white"/>
<path opacity="0.32" d="M586.167 249.073C586.226 239.688 578.633 232.033 569.209 231.974C559.784 231.914 552.095 239.474 552.036 248.858C551.977 258.243 559.57 265.898 568.995 265.957C578.42 266.016 586.108 258.457 586.167 249.073Z" fill="white"/>
<path d="M569.135 230.059C564.562 230.052 560.143 231.702 556.695 234.702C553.246 237.703 551.004 241.85 550.382 246.377C546.413 243.145 541.452 245.712 540.817 246.089C540.062 241.282 537.473 236.953 533.594 234.01C529.715 231.067 524.847 229.738 520.009 230.302C515.172 230.866 510.74 233.279 507.644 237.035C504.547 240.791 503.025 245.599 503.398 250.451C503.77 255.304 506.007 259.824 509.641 263.064C513.274 266.305 518.022 268.014 522.889 267.835C527.756 267.655 532.365 265.601 535.75 262.101C539.134 258.602 541.032 253.93 541.046 249.063C545.659 245.266 550.263 248.934 550.263 248.934C550.249 252.676 551.347 256.338 553.418 259.457C555.489 262.575 558.439 265.009 561.895 266.45C565.351 267.892 569.158 268.276 572.833 267.554C576.508 266.833 579.886 265.038 582.539 262.396C585.192 259.755 587.001 256.387 587.737 252.718C588.472 249.048 588.102 245.244 586.672 241.785C585.242 238.326 582.816 235.37 579.703 233.289C576.59 231.209 572.929 230.098 569.184 230.098L569.135 230.059ZM522.075 265.5C518.813 265.488 515.628 264.511 512.922 262.691C510.216 260.872 508.111 258.292 506.871 255.277C505.632 252.262 505.315 248.948 505.96 245.754C506.605 242.559 508.183 239.627 510.495 237.328C512.807 235.029 515.749 233.466 518.95 232.837C522.15 232.208 525.465 232.541 528.476 233.794C531.487 235.046 534.06 237.162 535.868 239.875C537.676 242.587 538.639 245.774 538.635 249.033C538.629 251.201 538.197 253.347 537.362 255.347C536.527 257.348 535.306 259.165 533.768 260.694C532.23 262.223 530.406 263.434 528.4 264.259C526.394 265.084 524.244 265.505 522.075 265.5ZM569.135 265.381C565.874 265.369 562.69 264.393 559.984 262.574C557.278 260.755 555.173 258.176 553.933 255.163C552.693 252.149 552.375 248.836 553.018 245.642C553.662 242.448 555.238 239.516 557.548 237.216C559.858 234.916 562.798 233.352 565.997 232.721C569.196 232.089 572.511 232.419 575.522 233.669C578.534 234.918 581.107 237.032 582.918 239.741C584.728 242.451 585.694 245.636 585.694 248.895C585.69 251.064 585.259 253.211 584.425 255.213C583.59 257.215 582.369 259.034 580.832 260.565C579.294 262.096 577.47 263.309 575.463 264.135C573.456 264.962 571.305 265.385 569.135 265.381Z" fill="white"/>
<path opacity="0.2" d="M686.134 505.909C683.581 505.373 681.113 504.489 678.802 503.281C671.987 499.573 666.62 493.682 663.561 486.557L654.533 453.574L655.654 492C656.021 521.483 627.267 530.812 627.267 530.812L564.65 552.454C587.679 570.239 574.354 594.498 574.354 594.498H594.971C608.991 564.39 586.796 547.368 586.796 547.368C619.915 533.062 672.948 520.869 672.948 520.869C701.572 512.938 714.024 519.005 714.024 519.005C705.792 512.664 696.274 508.195 686.134 505.909Z" fill="black"/>
<path d="M589.365 587.776C591.048 587.776 592.411 586.414 592.411 584.733C592.411 583.052 591.048 581.689 589.365 581.689C587.683 581.689 586.319 583.052 586.319 584.733C586.319 586.414 587.683 587.776 589.365 587.776Z" fill="#0CADB7"/>
<rect x="188" y="152" width="284" height="91" rx="20" fill="white" stroke="#0CADB7" stroke-width="24"/>
<path d="M230.524 191.94V198.24H238.984V202.236H230.524V208.896H240.064V213H225.484V187.836H240.064V191.94H230.524ZM259.98 198.024V202.272H244.716V198.024H259.98ZM283.956 195.648C283.956 196.992 283.632 198.252 282.984 199.428C282.36 200.604 281.364 201.552 279.996 202.272C278.652 202.992 276.948 203.352 274.884 203.352H270.672V213H265.632V187.872H274.884C276.828 187.872 278.484 188.208 279.852 188.88C281.22 189.552 282.24 190.476 282.912 191.652C283.608 192.828 283.956 194.16 283.956 195.648ZM274.668 199.284C276.06 199.284 277.092 198.972 277.764 198.348C278.436 197.7 278.772 196.8 278.772 195.648C278.772 193.2 277.404 191.976 274.668 191.976H270.672V199.284H274.668ZM296.391 213.324C294.471 213.324 292.743 212.904 291.207 212.064C289.671 211.2 288.459 209.988 287.571 208.428C286.707 206.868 286.275 205.068 286.275 203.028C286.275 200.988 286.719 199.188 287.607 197.628C288.519 196.068 289.755 194.868 291.315 194.028C292.875 193.164 294.615 192.732 296.535 192.732C298.455 192.732 300.195 193.164 301.755 194.028C303.315 194.868 304.539 196.068 305.427 197.628C306.339 199.188 306.795 200.988 306.795 203.028C306.795 205.068 306.327 206.868 305.391 208.428C304.479 209.988 303.231 211.2 301.647 212.064C300.087 212.904 298.335 213.324 296.391 213.324ZM296.391 208.932C297.303 208.932 298.155 208.716 298.947 208.284C299.763 207.828 300.411 207.156 300.891 206.268C301.371 205.38 301.611 204.3 301.611 203.028C301.611 201.132 301.107 199.68 300.099 198.672C299.115 197.64 297.903 197.124 296.463 197.124C295.023 197.124 293.811 197.64 292.827 198.672C291.867 199.68 291.387 201.132 291.387 203.028C291.387 204.924 291.855 206.388 292.791 207.42C293.751 208.428 294.951 208.932 296.391 208.932ZM315.532 196.152C316.18 195.096 317.02 194.268 318.052 193.668C319.108 193.068 320.308 192.768 321.652 192.768V198.06H320.32C318.736 198.06 317.536 198.432 316.72 199.176C315.928 199.92 315.532 201.216 315.532 203.064V213H310.492V193.056H315.532V196.152ZM330.915 197.196V206.844C330.915 207.516 331.071 208.008 331.383 208.32C331.719 208.608 332.271 208.752 333.039 208.752H335.379V213H332.211C327.963 213 325.839 210.936 325.839 206.808V197.196H323.463V193.056H325.839V188.124H330.915V193.056H335.379V197.196H330.915ZM347.86 213.324C345.94 213.324 344.212 212.904 342.676 212.064C341.14 211.2 339.928 209.988 339.04 208.428C338.176 206.868 337.744 205.068 337.744 203.028C337.744 200.988 338.188 199.188 339.076 197.628C339.988 196.068 341.224 194.868 342.784 194.028C344.344 193.164 346.084 192.732 348.004 192.732C349.924 192.732 351.664 193.164 353.224 194.028C354.784 194.868 356.008 196.068 356.896 197.628C357.808 199.188 358.264 200.988 358.264 203.028C358.264 205.068 357.796 206.868 356.86 208.428C355.948 209.988 354.7 211.2 353.116 212.064C351.556 212.904 349.804 213.324 347.86 213.324ZM347.86 208.932C348.772 208.932 349.624 208.716 350.416 208.284C351.232 207.828 351.88 207.156 352.36 206.268C352.84 205.38 353.08 204.3 353.08 203.028C353.08 201.132 352.576 199.68 351.568 198.672C350.584 197.64 349.372 197.124 347.932 197.124C346.492 197.124 345.28 197.64 344.296 198.672C343.336 199.68 342.856 201.132 342.856 203.028C342.856 204.924 343.324 206.388 344.26 207.42C345.22 208.428 346.42 208.932 347.86 208.932ZM371.105 197.196H367.613V213H362.501V197.196H360.233V193.056H362.501V192.048C362.501 189.6 363.197 187.8 364.589 186.648C365.981 185.496 368.081 184.956 370.889 185.028V189.276C369.665 189.252 368.813 189.456 368.333 189.888C367.853 190.32 367.613 191.1 367.613 192.228V193.056H371.105V197.196ZM383.227 213.324C381.307 213.324 379.579 212.904 378.043 212.064C376.507 211.2 375.295 209.988 374.407 208.428C373.543 206.868 373.111 205.068 373.111 203.028C373.111 200.988 373.555 199.188 374.443 197.628C375.355 196.068 376.591 194.868 378.151 194.028C379.711 193.164 381.451 192.732 383.371 192.732C385.291 192.732 387.031 193.164 388.591 194.028C390.151 194.868 391.375 196.068 392.263 197.628C393.175 199.188 393.631 200.988 393.631 203.028C393.631 205.068 393.163 206.868 392.227 208.428C391.315 209.988 390.067 211.2 388.483 212.064C386.923 212.904 385.171 213.324 383.227 213.324ZM383.227 208.932C384.139 208.932 384.991 208.716 385.783 208.284C386.599 207.828 387.247 207.156 387.727 206.268C388.207 205.38 388.447 204.3 388.447 203.028C388.447 201.132 387.943 199.68 386.935 198.672C385.951 197.64 384.739 197.124 383.299 197.124C381.859 197.124 380.647 197.64 379.663 198.672C378.703 199.68 378.223 201.132 378.223 203.028C378.223 204.924 378.691 206.388 379.627 207.42C380.587 208.428 381.787 208.932 383.227 208.932ZM402.368 186.36V213H397.328V186.36H402.368ZM409.903 190.68C409.015 190.68 408.271 190.404 407.671 189.852C407.095 189.276 406.807 188.568 406.807 187.728C406.807 186.888 407.095 186.192 407.671 185.64C408.271 185.064 409.015 184.776 409.903 184.776C410.791 184.776 411.523 185.064 412.099 185.64C412.699 186.192 412.999 186.888 412.999 187.728C412.999 188.568 412.699 189.276 412.099 189.852C411.523 190.404 410.791 190.68 409.903 190.68ZM412.387 193.056V213H407.347V193.056H412.387ZM426.223 213.324C424.303 213.324 422.575 212.904 421.039 212.064C419.503 211.2 418.291 209.988 417.403 208.428C416.539 206.868 416.107 205.068 416.107 203.028C416.107 200.988 416.551 199.188 417.439 197.628C418.351 196.068 419.587 194.868 421.147 194.028C422.707 193.164 424.447 192.732 426.367 192.732C428.287 192.732 430.027 193.164 431.587 194.028C433.147 194.868 434.371 196.068 435.259 197.628C436.171 199.188 436.627 200.988 436.627 203.028C436.627 205.068 436.159 206.868 435.223 208.428C434.311 209.988 433.063 211.2 431.479 212.064C429.919 212.904 428.167 213.324 426.223 213.324ZM426.223 208.932C427.135 208.932 427.987 208.716 428.779 208.284C429.595 207.828 430.243 207.156 430.723 206.268C431.203 205.38 431.443 204.3 431.443 203.028C431.443 201.132 430.939 199.68 429.931 198.672C428.947 197.64 427.735 197.124 426.295 197.124C424.855 197.124 423.643 197.64 422.659 198.672C421.699 199.68 421.219 201.132 421.219 203.028C421.219 204.924 421.687 206.388 422.623 207.42C423.583 208.428 424.783 208.932 426.223 208.932Z" fill="#0CADB7"/>
</svg>
