<svg width="23" height="22" viewBox="0 0 23 22" fill="none" xmlns="http://www.w3.org/2000/svg">
<g clip-path="url(#clip0_228_132)">
<path d="M11.1818 0.234772C6.15691 0.234772 2.08264 4.11169 2.08264 8.89323C2.08264 13.069 5.18927 16.5582 9.33145 17.374C9.19564 17.2771 9.06832 17.1802 8.95797 17.059C8.67787 16.7521 8.60147 16.3563 8.75426 16.0009C9.01739 15.4113 9.60307 15.064 10.3246 15.064C10.8338 15.064 11.411 15.2417 11.8609 15.5405C12.0222 15.6455 12.1495 15.7505 12.2598 15.8394C12.3108 15.8878 12.3872 15.9444 12.4296 15.9767C12.4466 15.9686 12.4805 15.9605 12.5145 15.9363C12.5739 15.904 12.6673 15.7909 12.8795 15.1367C13.0747 14.5309 13.4057 13.9978 13.8216 13.6021C14.3224 13.1255 14.9251 12.8671 15.5617 12.8509C15.5872 12.8509 15.6041 12.8509 15.6296 12.8509C16.3935 12.8509 16.9707 13.2144 17.1744 13.8202C17.3696 14.3855 17.1659 15.0559 16.6991 15.379C16.5208 15.5002 16.3256 15.6778 16.1559 15.8636C16.1728 15.8798 16.1898 15.8959 16.1983 15.9121C16.2153 15.9282 16.2238 15.9444 16.2407 15.9605C16.3001 15.9686 16.3596 15.9767 16.4105 15.9928C18.7532 14.4259 20.2895 11.8332 20.2895 8.90131C20.281 4.1117 16.2068 0.234772 11.1818 0.234772ZM8.60996 8.00477C8.61845 8.029 8.62694 8.04516 8.63543 8.06939C8.88158 8.85285 8.41474 9.68477 7.59139 9.92708C6.76805 10.1694 5.89378 9.71708 5.63914 8.93362C5.63065 8.90939 5.63065 8.89323 5.62216 8.869L5.03649 9.03862L4.79033 8.26323L8.73728 7.13246L8.98344 7.90785L8.60996 8.00477ZM14.4837 2.884L14.4667 3.69169C12.82 3.66746 11.81 4.59631 11.4535 5.404L10.6726 5.08093C11.1309 4.04708 12.4211 2.84362 14.4837 2.884ZM10.4094 13.0771C10.0869 13.0771 9.79829 13.0528 9.55214 13.0286L9.71341 11.7686C10.732 11.8898 12.6673 11.8413 14.1442 10.2017L15.1543 11.0255C13.6349 12.7136 11.759 13.0771 10.4094 13.0771ZM14.4243 7.96439C13.6009 8.19862 12.7267 7.75439 12.472 6.97093C12.2259 6.18746 12.6927 5.35554 13.5161 5.11323C14.3394 4.879 15.2137 5.32323 15.4683 6.10669C15.723 6.89016 15.2561 7.72208 14.4243 7.96439ZM13.7537 20.9117C13.4991 20.9117 13.236 20.8875 12.9474 20.8228C12.1495 20.6613 11.6572 20.0232 11.5044 19.1671C11.1734 17.269 9.38238 16.5744 9.5097 16.2998C9.65399 15.9686 9.96805 15.8475 10.3076 15.8475C10.681 15.8475 11.0885 15.9928 11.3686 16.1786C11.776 16.4452 11.9967 16.7682 12.3872 16.7682C12.523 16.7682 12.6842 16.7278 12.8795 16.6309C13.2275 16.4613 13.3972 16.1786 13.6604 15.3548C13.9659 14.4098 14.6704 13.6505 15.5702 13.6263C15.5872 13.6263 15.5956 13.6263 15.6126 13.6263C16.5803 13.6263 16.4954 14.5148 16.1898 14.7248C15.5362 15.1771 14.8826 16.0817 14.8826 16.0817C14.8826 16.0817 15.2816 16.1059 15.5277 16.3967C15.5447 16.4209 15.5617 16.4371 15.5787 16.4613C15.7739 16.6955 15.7739 16.7602 15.7739 16.7682C15.7739 16.7682 15.8673 16.7359 16.0116 16.7359C16.1898 16.7359 16.436 16.7925 16.6651 17.0348C17.3866 17.7859 16.4614 20.9117 13.7537 20.9117Z" fill="white"/>
</g>
<defs>
<clipPath id="clip0_228_132">
<rect width="22.069" height="21" fill="white" transform="translate(0.147339 0.0732422)"/>
</clipPath>
</defs>
</svg>
