<svg width="22" height="21" viewBox="0 0 22 21" fill="none" xmlns="http://www.w3.org/2000/svg">
<g clip-path="url(#clip0_228_97)">
<path d="M9.37059 5.34586H20.2345C20.9845 5.34586 21.5925 4.76861 21.5925 4.05658C21.5925 3.34456 20.9845 2.7673 20.2345 2.7673H9.37059C8.62062 2.7673 8.0126 3.34456 8.0126 4.05658C8.0126 4.76861 8.62053 5.34586 9.37059 5.34586Z" fill="white"/>
<path d="M20.2345 8.78397H9.37059C8.62062 8.78397 8.0126 9.36122 8.0126 10.0732C8.0126 10.7853 8.62062 11.3625 9.37059 11.3625H20.2345C20.9845 11.3625 21.5925 10.7853 21.5925 10.0732C21.5925 9.36122 20.9845 8.78397 20.2345 8.78397Z" fill="white"/>
<path d="M20.2345 14.8006H9.37059C8.62062 14.8006 8.0126 15.3779 8.0126 16.0899C8.0126 16.8019 8.62062 17.3792 9.37059 17.3792H20.2345C20.9845 17.3792 21.5925 16.8019 21.5925 16.0899C21.5925 15.3779 20.9845 14.8006 20.2345 14.8006Z" fill="white"/>
<path d="M4.94328 9.0473L4.03895 8.9225L3.63455 8.14446C3.52011 7.92442 3.28418 7.7851 3.02562 7.7851C2.76724 7.7851 2.53114 7.92442 2.4167 8.14446L2.0122 8.9225L1.10796 9.0473C0.85221 9.08254 0.639639 9.25264 0.55979 9.486C0.47994 9.71936 0.546572 9.9755 0.73153 10.1468L1.3859 10.7523L1.23136 11.6075C1.18763 11.8493 1.29238 12.0938 1.50142 12.238C1.61974 12.3197 1.75971 12.3612 1.90058 12.3612C2.00858 12.3612 2.11713 12.3367 2.21644 12.2872L3.02544 11.8834L3.83444 12.2872C3.93385 12.3368 4.0423 12.3612 4.15031 12.3612C4.15094 12.3612 4.15167 12.3612 4.15221 12.3612C4.5272 12.3611 4.83111 12.0726 4.83111 11.7165C4.83111 11.6625 4.82414 11.6099 4.81092 11.5597L4.66499 10.7523L5.31936 10.1468C5.50449 9.9755 5.57104 9.71936 5.49119 9.486C5.41161 9.25264 5.19904 9.08254 4.94328 9.0473Z" fill="white"/>
<path d="M4.94328 3.03067L4.03895 2.90587L3.63455 2.12783C3.52011 1.90779 3.28418 1.76846 3.02562 1.76846C2.76724 1.76846 2.53114 1.90779 2.4167 2.12783L2.0122 2.90587L1.10796 3.03067C0.85221 3.06591 0.639639 3.23601 0.55979 3.46937C0.47994 3.70273 0.546572 3.95886 0.73153 4.13017L1.3859 4.7357L1.23136 5.59083C1.18763 5.8327 1.29238 6.07715 1.50142 6.22138C1.61974 6.30303 1.75971 6.34455 1.90058 6.34455C2.00858 6.34455 2.11713 6.32005 2.21644 6.27054L3.02544 5.86674L3.83444 6.27054C3.93385 6.32014 4.0423 6.34455 4.15031 6.34455C4.15094 6.34455 4.15167 6.34455 4.15221 6.34455C4.5272 6.34455 4.83111 6.05592 4.83111 5.69991C4.83111 5.64584 4.82414 5.59324 4.81092 5.54305L4.66499 4.7357L5.31936 4.13017C5.50449 3.95886 5.57104 3.70273 5.49119 3.46937C5.41161 3.23601 5.19904 3.06591 4.94328 3.03067Z" fill="white"/>
<path d="M4.94328 15.064L4.03895 14.9392L3.63455 14.1611C3.52011 13.9411 3.28418 13.8018 3.02562 13.8018C2.76724 13.8018 2.53114 13.9411 2.4167 14.1611L2.0122 14.9392L1.10796 15.064C0.85221 15.0992 0.639639 15.2693 0.55979 15.5027C0.47994 15.736 0.546572 15.9922 0.73153 16.1635L1.3859 16.769L1.23136 17.6241C1.18763 17.866 1.29238 18.1104 1.50142 18.2547C1.61974 18.3363 1.75971 18.3778 1.90058 18.3778C2.00858 18.3778 2.11713 18.3533 2.21644 18.3038L3.02544 17.9L3.83444 18.3038C3.93385 18.3534 4.0423 18.3778 4.15031 18.3778C4.15094 18.3778 4.15167 18.3778 4.15221 18.3778C4.5272 18.3778 4.83111 18.0892 4.83111 17.7332C4.83111 17.6791 4.82414 17.6265 4.81092 17.5763L4.66499 16.769L5.31936 16.1635C5.50449 15.9922 5.57104 15.736 5.49119 15.5027C5.41161 15.2693 5.19904 15.0992 4.94328 15.064Z" fill="white"/>
</g>
<defs>
<clipPath id="clip0_228_97">
<rect width="21.0658" height="20" fill="white" transform="translate(0.526642 0.0732422)"/>
</clipPath>
</defs>
</svg>
