<svg width="28" height="28" viewBox="0 0 28 28" fill="none" xmlns="http://www.w3.org/2000/svg">
<path d="M20.5513 5.93784C20.5513 6.33577 20.952 6.7337 21.5122 6.7337C22.3125 6.7337 22.5527 6.41536 22.5527 5.93784C22.5527 5.85826 22.5527 5.85826 22.5527 5.77902C22.473 5.54027 22.2324 5.38109 21.9929 5.22192C21.9125 5.22192 21.7527 5.14233 21.5929 5.14233C21.0317 5.14269 20.5513 5.46068 20.5513 5.93784Z" fill="white"/>
<path d="M22.2329 3.31173C22.1521 2.83421 21.8322 2.43628 21.4322 2.43628C21.0315 2.43628 20.7913 2.83421 20.8721 3.31173C20.9529 3.78925 21.2721 4.18718 21.6724 4.18718C21.9927 4.18718 22.3126 3.78925 22.2329 3.31173Z" fill="white"/>
<path d="M18.63 9.28048L19.9912 7.92752C20.7915 8.56421 21.7534 8.96214 22.794 8.96214C25.2758 8.96214 27.2778 6.97212 27.2778 4.50531C27.2771 2.03813 25.2758 0.0488281 22.7936 0.0488281C20.3122 0.0488281 18.3098 2.03849 18.3098 4.50566C18.3098 5.61987 18.7098 6.57455 19.3507 7.29118L17.9891 8.6445C18.2293 8.88291 18.4695 9.12202 18.63 9.28048ZM23.5142 3.07275H24.3946V2.19766H24.7149V3.07311H25.596V3.39145H24.7149V4.26726H24.3946V3.3911H23.5142V3.07275ZM21.5125 4.58489C21.5125 4.5053 21.5125 4.42572 21.5933 4.34613C21.5125 4.34613 21.5125 4.34613 21.4335 4.34613C20.7926 4.34613 20.3122 3.86861 20.3122 3.31151C20.3122 2.75441 20.9524 2.27689 21.5933 2.27689H23.0338L22.7136 2.51565H22.2331C22.5534 2.59559 22.7136 2.99352 22.7136 3.3911C22.7136 3.70944 22.5534 3.9482 22.3129 4.18696C22.0726 4.34613 21.9926 4.42572 21.9926 4.58489C21.9926 4.74406 22.2331 4.98282 22.3929 5.06241C22.7929 5.30117 22.8733 5.61951 22.8733 6.01744C22.8733 6.57419 22.3929 7.05207 21.4325 7.05207C20.6321 7.05207 19.9111 6.73372 19.9111 6.17662C19.9111 5.61951 20.5513 5.142 21.352 5.142C21.4325 5.142 21.5118 5.142 21.5922 5.142C21.5922 4.90359 21.5125 4.74442 21.5125 4.58489Z" fill="white"/>
<path d="M22.794 18.3534C21.7535 18.3534 20.7126 18.7509 19.9912 19.388L18.6304 18.0347C18.4699 18.2734 18.2297 18.4319 18.0699 18.5911L19.4315 19.9444C18.7909 20.7395 18.3906 21.6956 18.3906 22.7303C18.3906 25.1971 20.393 27.1871 22.8748 27.1871C25.3562 27.1871 27.359 25.1971 27.359 22.7303C27.2775 20.2631 25.2761 18.3534 22.794 18.3534ZM21.5129 24.7999H20.6321V22.014H21.5129V24.7999ZM21.1126 21.6168C20.7923 21.6168 20.5524 21.3776 20.5524 21.1385C20.5524 20.8998 20.7926 20.661 21.1126 20.661C21.4325 20.661 21.6727 20.8998 21.6727 21.1385C21.5926 21.4572 21.4328 21.6168 21.1126 21.6168ZM25.116 24.7999H24.0751V23.3677C24.0751 22.9701 23.9153 22.731 23.5943 22.731C23.3541 22.731 23.1944 22.8901 23.1139 23.0493C23.1139 23.13 23.1139 23.2088 23.1139 23.2884V24.8009H22.1531C22.1531 24.8009 22.1531 22.2542 22.1531 22.015H23.1139V22.413C23.1944 22.2542 23.5146 21.9355 23.995 21.9355C24.6352 21.9355 25.116 22.333 25.116 23.2088V24.7999Z" fill="white"/>
<path d="M8.70158 18.0357L7.3404 19.389C6.53972 18.752 5.57889 18.3544 4.53799 18.3544C2.05586 18.3544 0.0541382 20.3448 0.0541382 22.8109C0.0541382 25.2781 2.05586 27.2681 4.53799 27.2681C7.01977 27.2681 9.02185 25.2781 9.02185 22.8109C9.02185 21.7763 8.62151 20.742 7.98096 20.0254L9.34213 18.672C9.10192 18.4329 8.86171 18.1938 8.70158 18.0357ZM6.46 22.0943C6.46 23.4472 5.41911 24.959 3.57753 24.959C3.0174 24.959 2.45656 24.7998 2.05622 24.4808C2.13629 24.4808 2.21635 24.4808 2.29642 24.4808C2.77684 24.4808 3.17718 24.322 3.57753 24.0832C3.17718 24.0832 2.77684 23.7649 2.6167 23.3666C2.69677 23.3666 2.77648 23.3666 2.77648 23.3666C2.85691 23.3666 2.93662 23.3666 3.01704 23.3666C2.53627 23.2863 2.21635 22.889 2.21635 22.4115C2.37649 22.4915 2.53663 22.5703 2.69677 22.5703C2.45656 22.4115 2.21635 22.0928 2.21635 21.7745C2.21635 21.616 2.29642 21.4561 2.37649 21.297C2.85691 21.934 3.57717 22.3316 4.45793 22.3316C4.45793 22.2513 4.45793 22.1728 4.45793 22.0928C4.45793 21.5357 4.9387 21.0582 5.49882 21.0582C5.8191 21.0582 6.0593 21.217 6.2198 21.3766C6.46 21.2966 6.70021 21.2174 6.86035 21.1378C6.77992 21.3766 6.61978 21.5354 6.37958 21.6942C6.61978 21.6942 6.77992 21.6142 6.94006 21.5354C6.77992 21.7741 6.61978 21.9329 6.45965 22.0129C6.46 22.0143 6.46 22.0143 6.46 22.0943Z" fill="white"/>
<path d="M4.53799 8.96232C5.57889 8.96232 6.61943 8.56439 7.3404 7.9277L8.70158 9.28067C8.86171 9.04191 9.10192 8.88309 9.26206 8.72392L7.90053 7.37095C8.54108 6.57509 8.94142 5.62005 8.94142 4.58543C8.94142 2.11826 6.9397 0.128601 4.45757 0.128601C1.97579 0.128601 0.0541382 2.11826 0.0541382 4.58543C0.0541382 6.97231 2.05586 8.96232 4.53799 8.96232ZM3.4971 3.78886H3.97751V3.31134C3.97751 2.67465 4.21772 2.27672 5.01841 2.27672H5.65896V3.07258H5.25861C4.93834 3.07258 4.93834 3.15217 4.93834 3.39093V3.78886H5.65896L5.57889 4.58472H4.85755V6.81314H3.89673V4.58472H3.41667V3.78886H3.4971Z" fill="white"/>
<path d="M17.7497 15.8865C17.6689 15.7281 17.5091 15.6474 17.4294 15.6474C16.7088 15.4087 16.0686 15.2502 15.348 15.0111C15.2679 15.0111 15.1078 14.8523 15.1078 14.5336C15.1078 14.374 15.1078 14.2945 14.948 14.2945C14.8672 14.2945 14.948 14.2945 14.8672 14.2149C14.7875 13.8965 14.7875 13.737 14.7875 13.6578C14.7875 13.5785 14.8672 13.5778 14.8672 13.4986C15.1078 13.1802 15.1875 12.7031 15.1875 12.5436C15.1875 12.5436 15.2679 12.5436 15.2679 12.4636C15.348 12.3044 15.348 12.3044 15.348 12.0653C15.4287 11.9069 15.4287 11.6681 15.2679 11.6681C15.1875 11.7477 15.1875 11.6681 15.1875 11.5089V10.5539C15.1875 10.2356 14.9469 9.99715 14.7875 9.91756C14.5466 9.75804 14.4672 9.67845 14.3868 9.67845C14.3064 9.59886 14.3064 9.51928 14.3868 9.43969C14.4668 9.36046 14.5466 9.36046 14.5466 9.28052C14.5466 9.28052 14.5466 9.28052 14.4661 9.28052C14.3857 9.28052 13.906 9.36081 13.6658 9.43969C13.2655 9.51928 12.8651 9.67845 12.5445 9.91756C12.3043 10.0764 12.1441 10.3151 12.1441 10.6342C12.1441 10.7927 12.1441 11.2705 12.1441 11.5892C12.1441 11.6695 12.1441 11.7484 12.0641 11.6695C11.8239 11.6695 11.984 11.9879 11.984 12.0667C11.984 12.2259 12.0641 12.3059 12.1438 12.465C12.1438 12.545 12.2242 12.545 12.2242 12.545C12.3043 12.7837 12.3843 13.2613 12.5445 13.5C12.5445 13.5 12.6249 13.58 12.6249 13.6592C12.6249 13.8184 12.6249 14.0571 12.5445 14.2163C12.5445 14.2163 12.5445 14.2962 12.4644 14.2962C12.3043 14.2962 12.3043 14.3758 12.3043 14.535C12.3043 14.7737 12.1441 15.0129 12.0641 15.0129C11.6637 15.1713 10.463 15.5696 10.0623 15.6492C9.82214 15.7295 9.74207 15.8084 9.662 15.888L9.26166 16.843C10.8627 16.843 11.6637 17.798 13.3452 18.1164H14.1459C15.8273 17.8776 17.028 16.843 18.1493 16.843L17.7497 15.8865Z" fill="white"/>
</svg>
