<svg width="21" height="22" viewBox="0 0 21 22" fill="none" xmlns="http://www.w3.org/2000/svg">
<path fill-rule="evenodd" clip-rule="evenodd" d="M8.11001 9.90683C7.74009 9.89903 7.38066 9.77939 7.07682 9.56291C6.77297 9.34643 6.53824 9.04277 6.40208 8.69001C6.26592 8.33726 6.2344 7.95113 6.31146 7.58008C6.38853 7.20902 6.57075 6.86956 6.83527 6.6043C7.09978 6.33904 7.43481 6.15979 7.79831 6.08903C8.16181 6.01828 8.5376 6.05917 8.87852 6.20659C9.21944 6.354 9.51031 6.60137 9.71463 6.91766C9.91894 7.23394 10.0276 7.60505 10.027 7.98443C10.0205 8.49972 9.81513 8.99137 9.45582 9.35169C9.09651 9.71201 8.61258 9.91163 8.11001 9.90683Z" fill="white"/>
<path fill-rule="evenodd" clip-rule="evenodd" d="M19.8682 13.1252L17.3158 9.23723V8.91323C17.3158 6.62984 16.4343 4.43929 14.8639 2.82031C13.2935 1.20133 11.162 0.285594 8.93507 0.273226C8.26363 0.268149 7.59442 0.352863 6.94435 0.525226C5.11496 0.984353 3.48951 2.06142 2.32974 3.583C1.16997 5.10457 0.54338 6.98209 0.55087 8.91323C0.501934 10.5334 0.940799 12.1298 1.8078 13.4852C3.27538 15.6452 4.26548 17.3732 3.65808 19.7132C3.58619 19.9725 3.5774 20.246 3.63249 20.5096C3.68757 20.7732 3.80486 21.0189 3.97407 21.2252C4.12265 21.4319 4.3177 21.5987 4.54265 21.7116C4.76759 21.8244 5.01578 21.8798 5.26611 21.8732H12.1476C12.5329 21.8758 12.907 21.7406 13.2056 21.4909C13.5042 21.2413 13.7086 20.8927 13.7837 20.5052C13.8242 20.3647 13.8478 20.2196 13.8539 20.0732C13.8853 19.8695 13.9876 19.6843 14.1419 19.5519C14.2961 19.4196 14.4919 19.349 14.6931 19.3532H15.1881C15.5556 19.365 15.9165 19.2512 16.214 19.0296C16.5114 18.808 16.7286 18.4912 16.8312 18.1292C17.1364 17.0022 17.3108 15.8422 17.3509 14.6732H19.166C19.3315 14.6525 19.4891 14.5887 19.6236 14.4879C19.7582 14.3871 19.8654 14.2526 19.9349 14.0972C20.003 13.9422 20.0325 13.7722 20.0208 13.6026C20.0092 13.433 19.9568 13.269 19.8682 13.1252ZM12.9025 10.112L12.5514 10.6772C12.4813 10.7792 12.3889 10.8629 12.2816 10.9216C12.1743 10.9804 12.055 11.0126 11.9334 11.0156C11.8468 11.01 11.7615 10.9906 11.6806 10.958L10.7502 10.598C10.3533 10.9484 9.89443 11.2173 9.39852 11.39L9.22999 12.4376C9.20082 12.606 9.11415 12.7583 8.98548 12.8671C8.85682 12.9759 8.69457 13.0343 8.5278 13.0316H7.8256C7.65883 13.0343 7.49658 12.9759 7.36792 12.8671C7.23926 12.7583 7.15258 12.606 7.12341 12.4376L6.95488 11.39C6.47822 11.2467 6.03665 11.0013 5.65933 10.67L4.67275 11.03C4.59192 11.0626 4.50663 11.082 4.41996 11.0876C4.29572 11.0859 4.17393 11.0519 4.0659 10.989C3.95787 10.9261 3.8671 10.8362 3.80203 10.7276L3.45093 10.1336C3.3675 9.98764 3.3386 9.81555 3.3696 9.64935C3.40059 9.48316 3.48938 9.33415 3.61946 9.23003L4.43752 8.54963C4.38325 8.29899 4.35501 8.04316 4.35325 7.78643C4.35613 7.54403 4.38438 7.30264 4.43752 7.06643L3.63701 6.35003C3.50567 6.24686 3.41592 6.09777 3.38484 5.93115C3.35377 5.76452 3.38354 5.592 3.46849 5.44643L3.81959 4.85243C3.88204 4.74148 3.97223 4.64963 4.08085 4.58635C4.18947 4.52307 4.3126 4.49064 4.43752 4.49243C4.52419 4.49804 4.60947 4.51747 4.69031 4.55003L5.67689 4.91003C6.05877 4.57534 6.49811 4.31652 6.97244 4.14683L7.11288 3.15323C7.14186 2.98706 7.22943 2.83764 7.35892 2.73341C7.48841 2.62918 7.65077 2.57744 7.81507 2.58803H8.51726C8.67743 2.57707 8.83614 2.62508 8.96487 2.72341C9.09359 2.82174 9.18387 2.96394 9.21946 3.12443L9.38799 4.14323C9.85986 4.29824 10.2993 4.54245 10.6835 4.86323L11.6701 4.50323C11.7509 4.47067 11.8362 4.45124 11.9229 4.44563C12.0471 4.44738 12.1689 4.48131 12.277 4.54424C12.385 4.60718 12.4758 4.69709 12.5408 4.80563L12.8919 5.39963C12.9766 5.54776 13.0069 5.72203 12.9772 5.89102C12.9476 6.06001 12.8601 6.21259 12.7304 6.32123L11.9124 7.00163C11.9681 7.25201 11.9964 7.508 11.9966 7.76483C11.9938 8.00723 11.9655 8.24861 11.9124 8.48483L12.7304 9.17963C12.8645 9.28725 12.9558 9.44114 12.9875 9.61265C13.0191 9.78417 12.9889 9.96164 12.9025 10.112Z" fill="white"/>
</svg>
