<svg width="67" height="58" viewBox="0 0 67 58" fill="none" xmlns="http://www.w3.org/2000/svg">
<path d="M64.2032 55.6642C64.7437 55.6642 65.255 55.4416 65.5953 55.0576C65.9357 54.6738 66.0684 54.1703 65.9567 53.687L64.8281 48.8045C65.4709 48.236 65.8749 47.4424 65.8749 46.56C65.8749 45.631 65.4223 44.8071 64.7199 44.2347V27.2791L60.1955 29.8386V44.2347C59.493 44.8071 59.0403 45.631 59.0403 46.56C59.0403 47.4425 59.4445 48.2362 60.0873 48.8045L58.9585 53.687C58.8468 54.1704 58.9797 54.6739 59.3199 55.0576C59.6603 55.4414 60.1716 55.6642 60.712 55.6642H64.2032ZM65.7367 17.3849L36.3034 0.729055C35.4414 0.243665 34.4697 0 33.4979 0C32.5262 0 31.5538 0.243461 30.697 0.729055L1.26328 17.3849C0.477342 17.8295 0 18.6147 0 19.4598C0 20.305 0.477341 21.0904 1.26328 21.5357L30.6969 38.1917C31.5536 38.6776 32.5261 38.9208 33.4978 38.9208C34.4695 38.9208 35.4414 38.6773 36.3033 38.1917L65.7367 21.5357C66.5227 21.0906 67 20.305 67 19.4598C67 18.6147 66.5227 17.8292 65.7367 17.3849ZM33.4978 43.0564C31.6643 43.0564 29.8749 42.591 28.3151 41.7084L11.1464 31.9921V48.7227C11.1464 53.6744 21.1582 57.6828 33.4978 57.6828C45.8418 57.6828 55.8528 53.6743 55.8528 48.7227V31.9921L38.6847 41.7084C37.125 42.591 35.3313 43.0564 33.4978 43.0564Z" fill="#E6846E"/>
</svg>
