<svg width="79" height="75" viewBox="0 0 79 75" fill="none" xmlns="http://www.w3.org/2000/svg">
<path d="M39.5 0.577148C21.5123 0.577148 6.92769 14.4233 6.92769 31.5002C6.92769 46.4137 18.0485 58.8752 32.8761 61.7887C32.39 61.4425 31.9342 61.0964 31.5392 60.6637C30.5365 59.5675 30.2631 58.1541 30.81 56.8848C31.7519 54.7791 33.8485 53.5387 36.4311 53.5387C38.2542 53.5387 40.3204 54.1733 41.9308 55.2406C42.5081 55.6156 42.9638 55.9906 43.3588 56.3079C43.5411 56.481 43.8146 56.6829 43.9665 56.7983C44.0273 56.7695 44.1488 56.7406 44.2704 56.6541C44.4831 56.5387 44.8173 56.1348 45.5769 53.7983C46.2758 51.6348 47.4608 49.731 48.9496 48.3175C50.7423 46.6156 52.8996 45.6925 55.1785 45.6348C55.2696 45.6348 55.3304 45.6348 55.4215 45.6348C58.1561 45.6348 60.2223 46.9329 60.9515 49.0964C61.6504 51.1156 60.9211 53.5098 59.25 54.6637C58.6119 55.0964 57.9131 55.731 57.3054 56.3945C57.3661 56.4521 57.4269 56.5098 57.4573 56.5675C57.5181 56.6252 57.5485 56.6829 57.6092 56.7406C57.8219 56.7695 58.0346 56.7983 58.2169 56.856C66.6031 51.2598 72.1027 42.0002 72.1027 31.5291C72.0723 14.4233 57.4877 0.577148 39.5 0.577148ZM30.2935 28.3271C30.3238 28.4137 30.3542 28.4714 30.3846 28.5579C31.2658 31.356 29.5946 34.3271 26.6473 35.1925C23.7 36.0579 20.5704 34.4425 19.6588 31.6445C19.6285 31.5579 19.6285 31.5002 19.5981 31.4137L17.5015 32.0195L16.6204 29.2502L30.7492 25.2118L31.6304 27.981L30.2935 28.3271ZM51.3196 10.0387L51.2588 12.9233C45.3642 12.8368 41.7485 16.1541 40.4723 19.0387L37.6769 17.8848C39.3177 14.1925 43.9361 9.89446 51.3196 10.0387ZM36.735 46.4425C35.5804 46.4425 34.5473 46.356 33.6661 46.2695L34.2435 41.7695C37.8896 42.2021 44.8173 42.0291 50.1042 36.1733L53.72 39.1156C48.2811 45.1445 41.5661 46.4425 36.735 46.4425ZM51.1069 28.1829C48.1596 29.0195 45.03 27.4329 44.1185 24.6348C43.2373 21.8368 44.9085 18.8656 47.8558 18.0002C50.8031 17.1637 53.9327 18.7502 54.8442 21.5483C55.7558 24.3464 54.0846 27.3175 51.1069 28.1829ZM48.7065 74.4233C47.795 74.4233 46.8531 74.3368 45.82 74.106C42.9638 73.5291 41.2015 71.2502 40.6546 68.1925C39.4696 61.4137 33.0585 58.9329 33.5142 57.9521C34.0308 56.7695 35.155 56.3368 36.3704 56.3368C37.7073 56.3368 39.1658 56.856 40.1685 57.5195C41.6269 58.4714 42.4169 59.6252 43.8146 59.6252C44.3008 59.6252 44.8781 59.481 45.5769 59.1348C46.8227 58.5291 47.4304 57.5195 48.3723 54.5771C49.4661 51.2021 51.9881 48.4906 55.2088 48.4041C55.2696 48.4041 55.3 48.4041 55.3608 48.4041C58.8246 48.4041 58.5208 51.5771 57.4269 52.3271C55.0873 53.9425 52.7477 57.1733 52.7477 57.1733C52.7477 57.1733 54.1758 57.2598 55.0569 58.2983C55.1177 58.3848 55.1785 58.4425 55.2392 58.5291C55.9381 59.3656 55.9381 59.5964 55.9381 59.6252C55.9381 59.6252 56.2723 59.5098 56.7888 59.5098C57.4269 59.5098 58.3081 59.7118 59.1285 60.5771C61.7111 63.2598 58.3992 74.4233 48.7065 74.4233Z" fill="#E6846E"/>
</svg>
