<svg width="38" height="36" viewBox="0 0 38 36" fill="none" xmlns="http://www.w3.org/2000/svg">
<g clip-path="url(#clip0_228_1037)">
<path d="M15.9533 9.49077H35.5504C36.9032 9.49077 38 8.45172 38 7.17007C38 5.88842 36.9032 4.84937 35.5504 4.84937H15.9533C14.6005 4.84937 13.5037 5.88842 13.5037 7.17007C13.5037 8.45172 14.6003 9.49077 15.9533 9.49077Z" fill="#E6846E"/>
<path d="M35.5504 15.6793H15.9533C14.6005 15.6793 13.5037 16.7184 13.5037 18C13.5037 19.2817 14.6005 20.3207 15.9533 20.3207H35.5504C36.9032 20.3207 38 19.2817 38 18C38 16.7184 36.9032 15.6793 35.5504 15.6793Z" fill="#E6846E"/>
<path d="M35.5504 26.5093H15.9533C14.6005 26.5093 13.5037 27.5483 13.5037 28.83C13.5037 30.1116 14.6005 31.1507 15.9533 31.1507H35.5504C36.9032 31.1507 38 30.1116 38 28.83C38 27.5483 36.9032 26.5093 35.5504 26.5093Z" fill="#E6846E"/>
<path d="M7.96702 16.1533L6.33573 15.9287L5.60623 14.5282C5.39981 14.1321 4.97423 13.8813 4.50782 13.8813C4.04173 13.8813 3.61583 14.1321 3.4094 14.5282L2.67974 15.9287L1.04861 16.1533C0.587264 16.2167 0.203815 16.5229 0.0597763 16.943C-0.0842621 17.363 0.0359332 17.8241 0.369573 18.1324L1.54997 19.2224L1.2712 20.7616C1.19232 21.197 1.38127 21.637 1.75835 21.8966C1.9718 22.0436 2.22427 22.1183 2.47838 22.1183C2.67321 22.1183 2.86901 22.0742 3.04816 21.9851L4.50749 21.2582L5.96682 21.9851C6.14613 22.0744 6.34178 22.1183 6.5366 22.1183C6.53775 22.1183 6.53905 22.1183 6.54003 22.1183C7.21646 22.1181 7.76469 21.5988 7.76469 20.9579C7.76469 20.8606 7.75211 20.7659 7.72827 20.6756L7.46501 19.2224L8.64541 18.1324C8.97938 17.8241 9.09941 17.363 8.95537 16.943C8.81182 16.5229 8.42837 16.2167 7.96702 16.1533Z" fill="#E6846E"/>
<path d="M7.96702 5.32336L6.33573 5.09872L5.60623 3.69825C5.39981 3.30218 4.97423 3.05139 4.50782 3.05139C4.04173 3.05139 3.61583 3.30218 3.4094 3.69825L2.67974 5.09872L1.04861 5.32336C0.587264 5.38679 0.203815 5.69297 0.0597763 6.11302C-0.0842621 6.53307 0.0359332 6.99411 0.369573 7.30246L1.54997 8.39241L1.2712 9.93166C1.19232 10.367 1.38127 10.807 1.75835 11.0666C1.9718 11.2136 2.22427 11.2883 2.47838 11.2883C2.67321 11.2883 2.86901 11.2442 3.04816 11.1551L4.50749 10.4283L5.96682 11.1551C6.14613 11.2444 6.34178 11.2883 6.5366 11.2883C6.53775 11.2883 6.53905 11.2883 6.54003 11.2883C7.21646 11.2883 7.76469 10.7688 7.76469 10.128C7.76469 10.0307 7.75211 9.93599 7.72827 9.84564L7.46501 8.39241L8.64541 7.30246C8.97938 6.99411 9.09941 6.53307 8.95537 6.11302C8.81182 5.69297 8.42837 5.38679 7.96702 5.32336Z" fill="#E6846E"/>
<path d="M7.96702 26.9833L6.33573 26.7586L5.60623 25.3582C5.39981 24.9621 4.97423 24.7113 4.50782 24.7113C4.04173 24.7113 3.61583 24.9621 3.4094 25.3582L2.67974 26.7586L1.04861 26.9833C0.587264 27.0467 0.203815 27.3529 0.0597763 27.7729C-0.0842621 28.193 0.0359332 28.654 0.369573 28.9624L1.54997 30.0523L1.2712 31.5916C1.19232 32.0269 1.38127 32.4669 1.75835 32.7265C1.9718 32.8735 2.22427 32.9483 2.47838 32.9483C2.67321 32.9483 2.86901 32.9042 3.04816 32.815L4.50749 32.0882L5.96682 32.815C6.14613 32.9043 6.34178 32.9483 6.5366 32.9483C6.53775 32.9483 6.53905 32.9483 6.54003 32.9483C7.21646 32.9481 7.76469 32.4287 7.76469 31.7879C7.76469 31.6906 7.75211 31.5959 7.72827 31.5056L7.46501 30.0523L8.64541 28.9624C8.97938 28.654 9.09941 28.193 8.95537 27.7729C8.81182 27.3529 8.42837 27.0467 7.96702 26.9833Z" fill="#E6846E"/>
</g>
<defs>
<clipPath id="clip0_228_1037">
<rect width="38" height="36" fill="white"/>
</clipPath>
</defs>
</svg>
