<svg width="96" height="96" viewBox="0 0 96 96" fill="none" xmlns="http://www.w3.org/2000/svg">
<path d="M72.0249 20.6933C72.0249 22.0915 73.4329 23.4898 75.4011 23.4898C78.2134 23.4898 79.0574 22.3712 79.0574 20.6933C79.0574 20.4136 79.0574 20.4136 79.0574 20.1352C78.7773 19.2962 77.932 18.7369 77.0905 18.1776C76.8079 18.1776 76.2464 17.8979 75.685 17.8979C73.713 17.8992 72.0249 19.0166 72.0249 20.6933Z" fill="#E6846E"/>
<path d="M77.9337 11.4654C77.6499 9.78744 76.5257 8.38916 75.1202 8.38916C73.7122 8.38916 72.8682 9.78744 73.152 11.4654C73.4359 13.1433 74.5575 14.5416 75.9643 14.5416C77.0897 14.5416 78.2138 13.1433 77.9337 11.4654Z" fill="#E6846E"/>
<path d="M65.2736 32.4388L70.0565 27.6847C72.8688 29.9219 76.2488 31.3202 79.9051 31.3202C88.6257 31.3202 95.6608 24.3276 95.6608 15.6595C95.6583 6.99015 88.6257 0 79.9038 0C71.1845 0 64.1481 6.9914 64.1481 15.6607C64.1481 19.5759 65.5537 22.9305 67.8057 25.4487L63.0215 30.2041C63.8655 31.0418 64.7096 31.882 65.2736 32.4388ZM82.436 10.6257H85.5296V7.55071H86.655V10.6269H89.7511V11.7455H86.655V14.823H85.5296V11.7443H82.436V10.6257ZM75.4022 15.9391C75.4022 15.6595 75.4022 15.3798 75.6861 15.1002C75.4022 15.1002 75.4022 15.1002 75.1246 15.1002C72.8726 15.1002 71.1844 13.4222 71.1844 11.4646C71.1844 9.50705 73.434 7.82912 75.6861 7.82912H80.7479L79.6225 8.66809H77.9344C79.0598 8.94899 79.6225 10.3473 79.6225 11.7443C79.6225 12.8629 79.0598 13.7019 78.2145 14.5409C77.3704 15.1002 77.0891 15.3798 77.0891 15.9391C77.0891 16.4985 77.9344 17.3374 78.4958 17.6171C79.9013 18.456 80.1839 19.5747 80.1839 20.9729C80.1839 22.9293 78.4958 24.6085 75.1209 24.6085C72.3086 24.6085 69.7752 23.4898 69.7752 21.5323C69.7752 19.5747 72.0247 17.8967 74.8383 17.8967C75.1209 17.8967 75.3997 17.8967 75.6823 17.8967C75.6823 17.059 75.4022 16.4997 75.4022 15.9391Z" fill="#E6846E"/>
<path d="M79.9052 64.3196C76.2488 64.3196 72.5913 65.7166 70.0566 67.9551L65.2749 63.1997C64.7109 64.0387 63.8669 64.5955 63.3054 65.1548L68.0897 69.9102C65.8388 72.7043 64.4321 76.0639 64.4321 79.6994C64.4321 88.3675 71.4684 95.3601 80.189 95.3601C88.9084 95.3601 95.946 88.3675 95.946 79.6994C95.6596 71.0301 88.6271 64.3196 79.9052 64.3196ZM75.4035 86.9717H72.3087V77.1825H75.4035V86.9717ZM73.9968 75.7867C72.8714 75.7867 72.0286 74.9465 72.0286 74.1063C72.0286 73.2673 72.8726 72.4284 73.9968 72.4284C75.1209 72.4284 75.965 73.2673 75.965 74.1063C75.6836 75.2262 75.1222 75.7867 73.9968 75.7867ZM88.0644 86.9717H84.4068V81.9392C84.4068 80.5421 83.8453 79.7019 82.7174 79.7019C81.8734 79.7019 81.3119 80.2612 81.0293 80.8205C81.0293 81.1039 81.0293 81.3811 81.0293 81.6607V86.9755H77.6531C77.6531 86.9755 77.6531 78.0265 77.6531 77.1862H81.0293V78.5845C81.3119 78.0265 82.4373 76.9066 84.1254 76.9066C86.375 76.9066 88.0644 78.3036 88.0644 81.3811V86.9717Z" fill="#E6846E"/>
<path d="M30.386 63.2031L25.603 67.9585C22.7895 65.72 19.4133 64.323 15.7557 64.323C7.03379 64.323 0 71.3169 0 79.9825C0 88.6518 7.03379 95.6445 15.7557 95.6445C24.4763 95.6445 31.5114 88.6518 31.5114 79.9825C31.5114 76.347 30.1046 72.7127 27.8538 70.1945L32.6368 65.4391C31.7927 64.5989 30.9487 63.7587 30.386 63.2031ZM22.5094 77.4643C22.5094 82.2185 18.8518 87.5307 12.3807 87.5307C10.4125 87.5307 8.4418 86.9714 7.03505 85.8503C7.3164 85.8503 7.59775 85.8503 7.8791 85.8503C9.56721 85.8503 10.974 85.2922 12.3807 84.4532C10.974 84.4532 9.56721 83.3346 9.00451 81.9351C9.28586 81.9351 9.56595 81.9351 9.56595 81.9351C9.84856 81.9351 10.1287 81.9351 10.4113 81.9351C8.7219 81.6529 7.59775 80.2571 7.59775 78.5792C8.16045 78.8601 8.72316 79.1373 9.28586 79.1373C8.4418 78.5792 7.59775 77.4593 7.59775 76.3407C7.59775 75.7839 7.8791 75.2221 8.16045 74.6628C9.84856 76.9013 12.3795 78.2983 15.4743 78.2983C15.4743 78.0161 15.4743 77.7402 15.4743 77.4593C15.4743 75.5017 17.1637 73.8238 19.1319 73.8238C20.2573 73.8238 21.1014 74.3819 21.6653 74.9424C22.5094 74.6615 23.3534 74.3831 23.9161 74.1035C23.6335 74.9424 23.0708 75.5005 22.2268 76.0586C23.0708 76.0586 23.6335 75.7777 24.1962 75.5005C23.6335 76.3395 23.0708 76.8975 22.5081 77.1784C22.5094 77.1834 22.5094 77.1834 22.5094 77.4643Z" fill="#E6846E"/>
<path d="M15.7557 31.3213C19.4133 31.3213 23.0696 29.923 25.603 27.6858L30.386 32.4399C30.9487 31.601 31.7927 31.0429 32.3554 30.4836L27.5712 25.7294C29.822 22.9329 31.2288 19.577 31.2288 15.9415C31.2288 7.27216 24.195 0.280762 15.4731 0.280762C6.75244 0.280762 0 7.27216 0 15.9415C0 24.3287 7.03379 31.3213 15.7557 31.3213ZM12.0981 13.1424H13.7862V11.4645C13.7862 9.22725 14.6303 7.82897 17.4438 7.82897H19.6946V10.6255H18.2879C17.1624 10.6255 17.1624 10.9052 17.1624 11.7442V13.1424H19.6946L19.4133 15.939H16.8786V23.7694H13.5024V15.939H11.8155V13.1424H12.0981Z" fill="#E6846E"/>
<path d="M62.1802 55.6517C61.8964 55.0948 61.3349 54.8114 61.0548 54.8114C58.5227 53.9725 56.2731 53.4157 53.7409 52.5754C53.4596 52.5754 52.8969 52.0174 52.8969 50.8975C52.8969 50.3369 52.8969 50.0573 52.3354 50.0573C52.0516 50.0573 52.3355 50.0573 52.0516 49.7776C51.7715 48.659 51.7715 48.0984 51.7715 47.82C51.7715 47.5416 52.0516 47.5391 52.0516 47.2607C52.8969 46.1421 53.177 44.4654 53.177 43.9049C53.177 43.9049 53.4596 43.9049 53.4596 43.624C53.7409 43.0646 53.7409 43.0646 53.7409 42.2244C54.0248 41.6676 54.0248 40.8286 53.4596 40.8286C53.177 41.1083 53.177 40.8286 53.177 40.2693V36.9135C53.177 35.7948 52.3317 34.9571 51.7715 34.6775C50.9249 34.1169 50.6461 33.8372 50.3635 33.8372C50.0809 33.5576 50.0809 33.2779 50.3635 32.9983C50.6448 32.7199 50.9249 32.7199 50.9249 32.439C50.9249 32.439 50.9249 32.439 50.6423 32.439C50.3597 32.439 48.6741 32.7211 47.8301 32.9983C46.4233 33.2779 45.0165 33.8372 43.8899 34.6775C43.0458 35.2355 42.4831 36.0745 42.4831 37.1956C42.4831 37.7524 42.4831 39.4316 42.4831 40.5515C42.4831 40.8336 42.4831 41.1108 42.2018 40.8336C41.3577 40.8336 41.9204 41.9523 41.9204 42.2294C41.9204 42.7887 42.2018 43.0696 42.4819 43.6289C42.4819 43.9099 42.7645 43.9098 42.7645 43.9098C43.0458 44.7488 43.3272 46.4268 43.8899 47.2657C43.8899 47.2657 44.1725 47.5466 44.1725 47.825C44.1725 48.3843 44.1725 49.2233 43.8899 49.7826C43.8899 49.7826 43.8899 50.0635 43.6085 50.0635C43.0458 50.0635 43.0458 50.3432 43.0458 50.9025C43.0458 51.7415 42.4831 52.5817 42.2018 52.5817C40.795 53.1385 36.576 54.538 35.168 54.8177C34.3239 55.0998 34.0426 55.377 33.7612 55.6566L32.3545 59.0125C37.9802 59.0125 40.795 62.3684 46.7034 63.487H49.5169C55.4253 62.648 59.6443 59.0125 63.5845 59.0125L62.1802 55.6517Z" fill="#E6846E"/>
</svg>
