<svg width="56" height="62" viewBox="0 0 56 62" fill="none" xmlns="http://www.w3.org/2000/svg">
<path fill-rule="evenodd" clip-rule="evenodd" d="M21.3663 27.9997C20.0863 27.9734 18.8425 27.5696 17.791 26.8389C16.7396 26.1083 15.9273 25.0834 15.4561 23.8928C14.985 22.7022 14.8759 21.3989 15.1426 20.1466C15.4092 18.8942 16.0398 17.7485 16.9552 16.8532C17.8705 15.9579 19.0298 15.3529 20.2877 15.1141C21.5456 14.8753 22.846 15.0133 24.0257 15.5108C25.2055 16.0084 26.212 16.8433 26.919 17.9108C27.6261 18.9783 28.0021 20.2309 28 21.5113C27.9776 23.2505 27.2668 24.9099 26.0235 26.126C24.7801 27.3422 23.1054 28.0159 21.3663 27.9997Z" fill="#E6846E"/>
<path fill-rule="evenodd" clip-rule="evenodd" d="M55.5541 36.8893L48.2149 25.7297V24.7998C48.215 18.2458 45.6804 11.9583 41.1651 7.31144C36.6497 2.66454 30.5208 0.0361186 24.1178 0.000618115C22.1872 -0.0139544 20.263 0.229199 18.3939 0.723927C13.1338 2.04175 8.46012 5.13323 5.12542 9.50056C1.79072 13.8679 -0.0109271 19.2569 0.0106082 24.7998C-0.130096 29.4502 1.13178 34.0321 3.62467 37.9226C7.84444 44.1224 10.6913 49.0823 8.94482 55.7987C8.7381 56.543 8.71283 57.3278 8.87123 58.0844C9.02962 58.841 9.36685 59.5463 9.85338 60.1385C10.2806 60.7318 10.8414 61.2106 11.4882 61.5345C12.135 61.8583 12.8486 62.0175 13.5684 61.9985H33.3549C34.4627 62.0058 35.5384 61.6178 36.397 60.9012C37.2555 60.1846 37.8433 59.1841 38.0592 58.0719C38.1756 57.6686 38.2434 57.2522 38.2611 56.832C38.3513 56.2472 38.6454 55.7156 39.089 55.3357C39.5326 54.9558 40.0956 54.7532 40.6739 54.7654H42.0973C43.154 54.7993 44.1917 54.4724 45.047 53.8364C45.9023 53.2004 46.5267 52.2913 46.8218 51.2522C47.6992 48.0173 48.2007 44.6877 48.3159 41.3325H53.5351C54.0109 41.2731 54.4638 41.09 54.8509 40.8006C55.2379 40.5112 55.546 40.1251 55.7459 39.6793C55.9415 39.2342 56.0263 38.7464 55.9929 38.2596C55.9594 37.7728 55.8087 37.302 55.5541 36.8893ZM35.5253 28.2406L34.5158 29.8629C34.3143 30.1555 34.0486 30.3957 33.7401 30.5644C33.4316 30.7331 33.0887 30.8255 32.7391 30.8342C32.4899 30.8181 32.2446 30.7623 32.0122 30.6689L29.337 29.6356C28.1958 30.6413 26.8763 31.413 25.4504 31.9089L24.9658 34.9157C24.8819 35.3991 24.6327 35.8361 24.2628 36.1485C23.8928 36.4609 23.4263 36.6283 22.9468 36.6207H20.9278C20.4482 36.6283 19.9817 36.4609 19.6118 36.1485C19.2418 35.8361 18.9926 35.3991 18.9087 34.9157L18.4242 31.9089C17.0536 31.4975 15.7839 30.7931 14.6991 29.8423L11.8623 30.8756C11.6299 30.969 11.3847 31.0248 11.1355 31.0409C10.7782 31.0358 10.428 30.9385 10.1174 30.7578C9.8068 30.5772 9.54582 30.3191 9.35872 30.0076L8.3492 28.3026C8.10931 27.8836 8.02621 27.3897 8.11533 26.9127C8.20446 26.4356 8.45975 26.0079 8.83377 25.7091L11.1859 23.7561C11.0299 23.0367 10.9487 22.3024 10.9437 21.5655C10.9519 20.8698 11.0332 20.177 11.1859 19.4989L8.88425 17.4427C8.5066 17.1466 8.24853 16.7187 8.15918 16.2404C8.06982 15.7621 8.15542 15.2669 8.39968 14.8491L9.40919 13.1442C9.58877 12.8257 9.84809 12.5621 10.1604 12.3804C10.4727 12.1988 10.8268 12.1057 11.1859 12.1109C11.4351 12.127 11.6804 12.1828 11.9128 12.2762L14.7495 13.3095C15.8475 12.3488 17.1108 11.606 18.4746 11.1189L18.8784 8.267C18.9618 7.79007 19.2136 7.36118 19.5859 7.06202C19.9582 6.76286 20.4251 6.61433 20.8975 6.64472H22.9165C23.377 6.61328 23.8334 6.75107 24.2035 7.0333C24.5736 7.31553 24.8332 7.72369 24.9355 8.18434L25.4201 11.1086C26.7769 11.5535 28.0404 12.2544 29.1452 13.1752L31.9819 12.1419C32.2144 12.0484 32.4596 11.9927 32.7088 11.9765C33.066 11.9816 33.4162 12.079 33.7268 12.2596C34.0375 12.4402 34.2984 12.6983 34.4855 13.0098L35.4951 14.7148C35.7385 15.14 35.8255 15.6402 35.7404 16.1252C35.6552 16.6103 35.4035 17.0482 35.0307 17.36L32.6785 19.313C32.8389 20.0316 32.9201 20.7664 32.9208 21.5035C32.9125 22.1993 32.8313 22.8921 32.6785 23.5701L35.0307 25.5644C35.4161 25.8733 35.6787 26.315 35.7697 26.8073C35.8607 27.2996 35.7739 27.809 35.5253 28.2406Z" fill="#E6846E"/>
</svg>
